<svg width="125" height="32" viewBox="0 0 125 32" fill="none" xmlns="http://www.w3.org/2000/svg">
<path fill-rule="evenodd" clip-rule="evenodd" d="M22.1119 16.1271C21.6275 16.3105 20.9586 16.7024 20.8493 17.1347C20.5849 18.181 23.1722 18.4689 24.5451 18.5202L25.6812 19.6355C25.8859 19.8364 26.2146 19.8334 26.4154 19.6288L27.6453 18.376C28.8894 18.2524 30.1166 18.0556 30.596 17.7925C31.0603 17.5376 31.3911 17.2379 31.2066 16.759C31.0409 16.3291 30.3709 16.1744 29.8703 16.109C30.7851 15.1393 30.7594 13.6113 29.8037 12.673C28.8361 11.7231 27.2817 11.7374 26.3318 12.705C26.1418 12.8985 25.8309 12.9014 25.6374 12.7114C24.6698 11.7615 23.1154 11.7758 22.1655 12.7434C21.2444 13.6816 21.2299 15.1715 22.1119 16.1271ZM22.5613 16.5725C22.1014 16.6208 21.2725 16.9692 21.5874 17.3488C21.8563 17.6729 22.8727 17.802 23.855 17.8427L22.5613 16.5725ZM28.3795 17.6282C28.7864 17.5855 29.112 17.541 29.2728 17.4988C29.3305 17.4837 29.4057 17.4666 29.4909 17.4473C29.916 17.3509 30.5905 17.1979 30.5882 16.9432C30.5846 16.5603 29.841 16.5923 29.4298 16.61C29.4115 16.6107 29.3939 16.6115 29.377 16.6122L28.3795 17.6282Z" fill="#111111"/>
<path d="M27.0899 9.61042C28.2131 9.09134 28.7161 7.74772 28.035 6.7147C26.6536 4.61959 24.7592 2.89564 22.5168 1.71649C19.6098 0.187921 16.2801 -0.339881 13.0429 0.214774C9.80575 0.769429 6.84165 2.37561 4.60938 4.78474C2.37711 7.19386 1.00114 10.2716 0.694422 13.5416C0.387709 16.8116 1.16736 20.0915 2.9127 22.8737C4.65805 25.6559 7.27177 27.7853 10.3493 28.9322C13.4269 30.0792 16.7967 30.1798 19.9372 29.2184C22.3598 28.4768 24.5417 27.1352 26.2886 25.3336C27.15 24.4452 26.9056 23.0315 25.8985 22.3126C24.8914 21.5937 23.5052 21.8504 22.5886 22.6816C21.456 23.7086 20.1049 24.481 18.6256 24.9338C16.4273 25.6068 14.0684 25.5364 11.9141 24.7335C9.75984 23.9306 7.93023 22.4401 6.70849 20.4925C5.48675 18.545 4.94099 16.249 5.15569 13.96C5.37039 11.671 6.33357 9.51663 7.89616 7.83024C9.45876 6.14386 11.5336 5.01953 13.7996 4.63127C16.0657 4.24301 18.3965 4.61247 20.4313 5.68247C21.8006 6.40247 22.9845 7.41266 23.9063 8.63235C24.6524 9.61948 25.9667 10.1295 27.0899 9.61042Z" fill="#111111"/>
<path d="M42.1758 30.472C39.5118 30.472 37.2078 29.272 36.2478 26.896C36.1518 26.704 36.2238 26.584 36.4158 26.512L38.4318 25.768C38.5998 25.696 38.7438 25.768 38.8398 25.936C39.4398 26.968 40.3998 27.64 42.0798 27.64C43.9998 27.64 45.6318 26.824 45.6318 24.616V23.488C44.7198 24.592 43.3518 25.24 41.7198 25.24C38.1678 25.24 35.9118 22.6 35.9118 18.784C35.9118 14.968 38.1678 12.328 41.7198 12.328C43.4478 12.328 44.8878 13.048 45.7758 14.272L45.8478 12.88C45.8478 12.664 45.9918 12.568 46.1838 12.568H48.4398C48.6318 12.568 48.7518 12.688 48.7518 12.88V24.304C48.7518 28.264 46.0878 30.472 42.1758 30.472ZM42.4878 22.408C44.4798 22.408 45.8478 20.92 45.8478 18.784C45.8478 16.648 44.4798 15.16 42.4878 15.16C40.4958 15.16 39.1278 16.648 39.1278 18.784C39.1278 20.92 40.4958 22.408 42.4878 22.408ZM54.8148 25H52.3188C52.1268 25 52.0068 24.88 52.0068 24.688V12.88C52.0068 12.688 52.1268 12.568 52.3188 12.568H54.5748C54.7668 12.568 54.9108 12.664 54.9108 12.88L54.9828 14.44C55.8228 13.096 57.2868 12.4 58.7748 12.4C59.1348 12.4 59.3748 12.424 59.6148 12.472C59.8068 12.52 59.8788 12.64 59.8788 12.808V15.28C59.8788 15.496 59.7588 15.568 59.5428 15.544C59.2308 15.52 58.8708 15.448 58.3908 15.448C56.7108 15.448 55.1268 16.6 55.1268 18.568V24.688C55.1268 24.88 55.0068 25 54.8148 25ZM67.6128 25.24C63.6288 25.24 61.0368 22.552 61.0368 18.784C61.0368 15.016 63.6288 12.328 67.6128 12.328C71.5968 12.328 74.1888 15.016 74.1888 18.784C74.1888 22.552 71.5968 25.24 67.6128 25.24ZM67.6128 22.408C69.6048 22.408 70.9728 20.92 70.9728 18.784C70.9728 16.648 69.6048 15.16 67.6128 15.16C65.6208 15.16 64.2528 16.648 64.2528 18.784C64.2528 20.92 65.6208 22.408 67.6128 22.408ZM81.4246 25H79.8406C79.6726 25 79.5286 24.928 79.4806 24.76L75.1366 12.928C75.0646 12.712 75.1846 12.568 75.4006 12.568H78.4006C78.5686 12.568 78.6886 12.64 78.7366 12.832L80.8486 19.696L83.7526 12.808C83.8246 12.664 83.9446 12.568 84.1126 12.568H85.6966C85.8646 12.568 85.9846 12.64 86.0566 12.808L88.8166 19.528L91.0486 12.832C91.0966 12.664 91.2406 12.568 91.4086 12.568H94.1446C94.3606 12.568 94.4806 12.712 94.4086 12.928L90.0646 24.76C90.0166 24.928 89.8726 25 89.7046 25H88.1206C87.9526 25 87.8326 24.928 87.7606 24.76L84.8566 17.656L81.7846 24.76C81.7126 24.904 81.5926 25 81.4246 25Z" fill="#111111"/>
<path d="M104.184 25H101.688C101.496 25 101.376 24.88 101.376 24.688V15.352H99.6478C99.4558 15.352 99.3358 15.232 99.3358 15.04V12.88C99.3358 12.688 99.4558 12.568 99.6478 12.568H101.376V11.776C101.376 8.752 103.08 6.832 105.744 6.832C106.968 6.832 107.976 7.192 108.768 7.912C108.888 8.032 108.912 8.2 108.816 8.344L107.736 10.024C107.64 10.192 107.472 10.24 107.304 10.096C106.872 9.784 106.512 9.664 105.984 9.664C105.024 9.664 104.496 10.36 104.496 11.728V12.568H112.44C112.632 12.568 112.752 12.688 112.752 12.88V24.688C112.752 24.88 112.632 25 112.44 25H109.944C109.752 25 109.632 24.88 109.632 24.688V15.352H104.496V24.688C104.496 24.88 104.376 25 104.184 25ZM111.192 10.768C110.136 10.768 109.344 10.024 109.344 8.968C109.344 7.912 110.136 7.168 111.192 7.168C112.248 7.168 113.04 7.912 113.04 8.968C113.04 10.024 112.248 10.768 111.192 10.768ZM120.878 25.24C118.19 25.24 116.702 23.56 116.702 20.2V15.352H114.878C114.686 15.352 114.566 15.232 114.566 15.04V12.88C114.566 12.688 114.686 12.568 114.878 12.568H116.702V9.232C116.702 9.04 116.822 8.92 117.014 8.92H119.51C119.702 8.92 119.822 9.04 119.822 9.232V12.568H122.774C122.966 12.568 123.086 12.688 123.086 12.88V15.04C123.086 15.232 122.966 15.352 122.774 15.352H119.822V20.392C119.822 21.736 120.254 22.408 121.214 22.408C121.622 22.408 121.91 22.24 122.15 21.808C122.246 21.64 122.39 21.568 122.582 21.664L124.454 22.504C124.646 22.6 124.694 22.768 124.55 23.008C123.662 24.64 122.294 25.24 120.878 25.24Z" fill="#111111"/>
</svg>
