<svg width="45" height="44" viewBox="0 0 45 44" fill="none" xmlns="http://www.w3.org/2000/svg">
<path d="M43.9791 22.0106C43.9791 34.1551 34.1341 44.0001 21.9896 44.0001C9.84506 44.0001 0 34.1551 0 22.0106C0 9.86606 9.84506 0.0209961 21.9896 0.0209961C34.1341 0.0209961 43.9791 9.86606 43.9791 22.0106ZM5.2775 22.0106C5.2775 31.2404 12.7597 38.7226 21.9896 38.7226C31.2194 38.7226 38.7016 31.2404 38.7016 22.0106C38.7016 12.7807 31.2194 5.29849 21.9896 5.29849C12.7597 5.29849 5.2775 12.7807 5.2775 22.0106Z" fill="#EBF1FF"/>
<path d="M20.7876 2.68603C20.686 1.23223 21.7853 -0.0452242 23.2408 0.0279985C26.8737 0.210762 30.4194 1.29303 33.5518 3.19569C37.439 5.55687 40.4985 9.0653 42.3087 13.2377C44.1189 17.4101 44.5909 22.0411 43.6595 26.4929C42.7281 30.9447 40.4392 34.9981 37.1082 38.0949C33.7771 41.1916 29.5678 43.1793 25.06 43.7841C20.5522 44.3889 15.9678 43.581 11.9383 41.4718C7.90877 39.3626 4.6324 36.0559 2.56052 32.007C0.890968 28.7444 0.069725 25.1294 0.151951 21.4928C0.184895 20.0358 1.53899 19.0324 2.98154 19.2396C4.42409 19.4467 5.4035 20.7881 5.42579 22.2453C5.46478 24.7942 6.08673 27.3128 7.25861 29.6029C8.83325 32.68 11.3233 35.1932 14.3857 36.7962C17.4482 38.3991 20.9323 39.0131 24.3582 38.5535C27.7841 38.0938 30.9832 36.5832 33.5148 34.2297C36.0464 31.8761 37.786 28.7955 38.4938 25.4122C39.2017 22.0288 38.843 18.5092 37.4672 15.3382C36.0915 12.1672 33.7663 9.50078 30.812 7.70628C28.6133 6.37077 26.1467 5.5671 23.6074 5.34263C22.1557 5.21431 20.8891 4.13982 20.7876 2.68603Z" fill="#00E87A"/>
<path d="M15.2173 29C14.3453 26.4154 16.3073 25.0513 17.3974 24.6923L20.4501 25.2308L20.9951 23.6154L17.9423 23.0769C17.9423 23.0769 17.8656 22.6892 17.9423 22.4609C18.0125 22.2521 18.2701 22 18.2701 22L21.5401 22.5385L22.0851 20.9231L19.114 19.9677C19.114 19.0645 19.412 18.6718 19.412 18.6718C19.412 18.6718 21.7242 19.4329 22.6302 18.4833C23.441 17.6333 22.6302 16.0769 22.6302 16.0769L23.7202 15C24.6285 15.8974 27.4255 18.4462 28.2976 19.3077C29.1696 20.1692 29.1703 20.9231 28.6253 21.4615L21.5401 29H15.2173Z" fill="#D9DDF5" stroke="#D9DDF5" stroke-width="0.66319"/>
</svg>
