<svg width="45" height="44" viewBox="0 0 45 44" fill="none" xmlns="http://www.w3.org/2000/svg">
<path d="M43.9791 22.0106C43.9791 34.1551 34.1341 44.0001 21.9896 44.0001C9.84506 44.0001 0 34.1551 0 22.0106C0 9.86606 9.84506 0.0209961 21.9896 0.0209961C34.1341 0.0209961 43.9791 9.86606 43.9791 22.0106ZM5.2775 22.0106C5.2775 31.2404 12.7597 38.7226 21.9896 38.7226C31.2194 38.7226 38.7016 31.2404 38.7016 22.0106C38.7016 12.7807 31.2194 5.29849 21.9896 5.29849C12.7597 5.29849 5.2775 12.7807 5.2775 22.0106Z" fill="#EBF1FF"/>
<path d="M20.7876 2.68603C20.686 1.23223 21.7853 -0.0452076 23.2408 0.0280163C25.2978 0.131503 27.3346 0.523714 29.2904 1.19667C32.08 2.15651 34.6479 3.66784 36.8413 5.64069C39.0346 7.61354 40.8086 10.0076 42.0576 12.6802C43.3065 15.3529 44.005 18.2495 44.1112 21.1977C44.2175 24.1459 43.7294 27.0853 42.6761 29.841C41.6228 32.5966 40.0258 35.1121 37.9802 37.2378C35.9345 39.3634 33.4821 41.0557 30.7688 42.2139C28.8665 43.0259 26.8633 43.5638 24.819 43.8151C23.3726 43.9929 22.1842 42.7979 22.1809 41.3406C22.1775 39.8832 23.3634 38.7203 24.8021 38.4878C26.1381 38.2719 27.4462 37.894 28.6969 37.3601C30.759 36.4799 32.6229 35.1938 34.1776 33.5783C35.7322 31.9628 36.946 30.051 37.7465 27.9567C38.547 25.8624 38.9179 23.6284 38.8371 21.3878C38.7564 19.1472 38.2256 16.9458 37.2764 14.9145C36.3272 12.8833 34.979 11.0638 33.312 9.56448C31.645 8.06511 29.6934 6.9165 27.5733 6.18703C26.2874 5.74457 24.9555 5.4618 23.6073 5.34264C22.1557 5.21433 20.8891 4.13982 20.7876 2.68603Z" fill="#00E87A"/>
<path d="M15.2173 29C14.3453 26.4154 16.3073 25.0513 17.3974 24.6923L20.4501 25.2308L20.9951 23.6154L17.9423 23.0769C17.9423 23.0769 17.8656 22.6892 17.9423 22.4609C18.0125 22.2521 18.2701 22 18.2701 22L21.5401 22.5385L22.0851 20.9231L19.114 19.9677C19.114 19.0645 19.412 18.6718 19.412 18.6718C19.412 18.6718 21.7242 19.4329 22.6302 18.4833C23.441 17.6333 22.6302 16.0769 22.6302 16.0769L23.7202 15C24.6285 15.8974 27.4255 18.4462 28.2976 19.3077C29.1696 20.1692 29.1703 20.9231 28.6253 21.4615L21.5401 29H15.2173Z" fill="#D9DDF5" stroke="#D9DDF5" stroke-width="0.66319"/>
</svg>
