<svg width="45" height="44" viewBox="0 0 45 44" fill="none" xmlns="http://www.w3.org/2000/svg">
<path d="M43.9791 22.0106C43.9791 34.1551 34.1341 44.0001 21.9896 44.0001C9.84506 44.0001 0 34.1551 0 22.0106C0 9.86606 9.84506 0.0209961 21.9896 0.0209961C34.1341 0.0209961 43.9791 9.86606 43.9791 22.0106ZM5.2775 22.0106C5.2775 31.2404 12.7597 38.7226 21.9896 38.7226C31.2194 38.7226 38.7016 31.2404 38.7016 22.0106C38.7016 12.7807 31.2194 5.29849 21.9896 5.29849C12.7597 5.29849 5.2775 12.7807 5.2775 22.0106Z" fill="#EBF1FF"/>
<path d="M20.7876 2.68603C20.686 1.23223 21.7853 -0.0452163 23.2408 0.0280077C26.3508 0.184469 29.4028 1.00038 32.19 2.43331C35.7623 4.26983 38.7633 7.04973 40.8673 10.4713C42.9713 13.8928 44.098 17.8253 44.125 21.842C44.1461 24.9759 43.4971 28.0676 42.2333 30.9137C41.6419 32.2456 40.0059 32.6502 38.7543 31.9035C37.5028 31.1569 37.1154 29.5418 37.6559 28.1884C38.4544 26.1892 38.8622 24.0466 38.8476 21.8774C38.8271 18.8248 37.9708 15.8361 36.3718 13.2357C34.7727 10.6354 32.4919 8.52263 29.777 7.12687C27.8478 6.13505 25.7517 5.53219 23.6074 5.34264C22.1557 5.21432 20.8891 4.13982 20.7876 2.68603Z" fill="#00E87A"/>
<path d="M15.2173 29C14.3453 26.4154 16.3073 25.0513 17.3974 24.6923L20.4501 25.2308L20.9951 23.6154L17.9423 23.0769C17.9423 23.0769 17.8656 22.6892 17.9423 22.4609C18.0125 22.2521 18.2701 22 18.2701 22L21.5401 22.5385L22.0851 20.9231L19.114 19.9677C19.114 19.0645 19.412 18.6718 19.412 18.6718C19.412 18.6718 21.7242 19.4329 22.6302 18.4833C23.441 17.6333 22.6302 16.0769 22.6302 16.0769L23.7202 15C24.6285 15.8974 27.4255 18.4462 28.2976 19.3077C29.1696 20.1692 29.1703 20.9231 28.6253 21.4615L21.5401 29H15.2173Z" fill="#D9DDF5" stroke="#D9DDF5" stroke-width="0.66319"/>
</svg>
