<svg width="44" height="44" viewBox="0 0 44 44" fill="none" xmlns="http://www.w3.org/2000/svg">
<path d="M44.0003 22.0002C44.0003 34.1505 34.1505 44.0003 22.0002 44.0003C9.84981 44.0003 0 34.1505 0 22.0002C0 9.84981 9.84981 0 22.0002 0C34.1505 0 44.0003 9.84981 44.0003 22.0002ZM5.28004 22.0002C5.28004 31.2344 12.7659 38.7203 22.0002 38.7203C31.2344 38.7203 38.7203 31.2344 38.7203 22.0002C38.7203 12.7659 31.2344 5.28004 22.0002 5.28004C12.7659 5.28004 5.28004 12.7659 5.28004 22.0002Z" fill="#EBF1FF"/>
<path d="M20.6508 2.68708C20.5492 1.23258 21.6491 -0.0454883 23.1053 0.0277715C26.6066 0.203921 30.0289 1.21528 33.0796 2.99369C36.1303 4.7721 38.6966 7.25176 40.5751 10.2118C41.3564 11.4429 40.7862 13.0296 39.4704 13.6579C38.1547 14.2862 36.5949 13.7132 35.7675 12.5126C34.3776 10.4957 32.5551 8.79962 30.4205 7.55525C28.2858 6.31088 25.9119 5.56064 23.472 5.34497C22.0196 5.21658 20.7524 4.14158 20.6508 2.68708Z" fill="#FF3D8B"/>
<path d="M21.5915 20.5496L15.0699 27.072C14.6398 27.4734 14.0377 28.5671 15.0699 29.7311C16.1021 30.8951 17.2516 30.4837 17.6973 30.1325C19.6835 27.8831 23.6887 23.3492 23.8201 23.2087C23.9843 23.0331 24.172 22.4562 25.1807 22.5565C25.9877 22.6368 27.1122 21.9043 27.5735 21.528C28.1131 20.9426 29.3048 19.6566 29.7552 19.195C30.3182 18.618 30.7639 18.1915 30.3182 17.6146C29.9616 17.153 29.4815 17.3219 29.286 17.4641C29.0436 17.7484 28.4087 18.4625 27.8081 19.0445C27.0574 19.772 26.8463 18.8438 26.8698 18.6431C26.8932 18.4424 27.9254 17.3888 28.418 16.862C28.9107 16.3352 29.2391 15.7833 28.7465 15.3317C28.3524 14.9705 27.8941 15.1812 27.7143 15.3317C27.3389 15.7248 26.5132 16.5911 26.2129 16.9122C25.8376 17.3135 25.603 17.5644 25.2511 17.2634C24.9696 17.0225 25.1025 16.6613 25.2042 16.5108C25.6499 16.0258 26.5648 15.0357 26.6586 14.9555C26.7759 14.8551 26.9167 14.7046 26.9401 14.3032C26.9636 13.9018 26.6117 13.5255 26.1425 13.5005C25.6733 13.4754 25.04 14.4788 24.4535 15.0558C23.867 15.6328 22.8583 16.862 22.436 17.5644C22.0138 18.2668 22.0607 19.8472 21.9903 19.9977C21.934 20.1181 21.701 20.4158 21.5915 20.5496Z" fill="#D9DDF5" stroke="#D9DDF5" stroke-width="0.00691084"/>
</svg>
