<svg width="45" height="44" viewBox="0 0 45 44" fill="none" xmlns="http://www.w3.org/2000/svg">
<path d="M44.0003 22.0002C44.0003 34.1505 34.1505 44.0003 22.0002 44.0003C9.84981 44.0003 0 34.1505 0 22.0002C0 9.84981 9.84981 0 22.0002 0C34.1505 0 44.0003 9.84981 44.0003 22.0002ZM5.28004 22.0002C5.28004 31.2344 12.7659 38.7203 22.0002 38.7203C31.2344 38.7203 38.7203 31.2344 38.7203 22.0002C38.7203 12.7659 31.2344 5.28004 22.0002 5.28004C12.7659 5.28004 5.28004 12.7659 5.28004 22.0002Z" fill="#EBF1FF"/>
<path d="M21.5915 20.5496L15.0699 27.072C14.6398 27.4734 14.0377 28.5671 15.0699 29.7311C16.1021 30.8951 17.2516 30.4837 17.6973 30.1325C19.6835 27.8831 23.6887 23.3492 23.8201 23.2087C23.9843 23.0331 24.172 22.4562 25.1807 22.5565C25.9877 22.6368 27.1122 21.9043 27.5735 21.528C28.1131 20.9426 29.3048 19.6566 29.7552 19.195C30.3182 18.618 30.7639 18.1915 30.3182 17.6146C29.9616 17.153 29.4815 17.3219 29.286 17.4641C29.0436 17.7484 28.4087 18.4625 27.8081 19.0445C27.0574 19.772 26.8463 18.8438 26.8698 18.6431C26.8932 18.4424 27.9254 17.3888 28.418 16.862C28.9107 16.3352 29.2391 15.7833 28.7465 15.3317C28.3524 14.9705 27.8941 15.1812 27.7143 15.3317C27.3389 15.7248 26.5132 16.5911 26.2129 16.9122C25.8376 17.3135 25.603 17.5644 25.2511 17.2634C24.9696 17.0225 25.1025 16.6613 25.2042 16.5108C25.6499 16.0258 26.5648 15.0357 26.6586 14.9555C26.7759 14.8551 26.9167 14.7046 26.9401 14.3032C26.9636 13.9018 26.6117 13.5255 26.1425 13.5005C25.6733 13.4754 25.04 14.4788 24.4535 15.0558C23.867 15.6328 22.8583 16.862 22.436 17.5644C22.0138 18.2668 22.0607 19.8472 21.9903 19.9977C21.934 20.1181 21.701 20.4158 21.5915 20.5496Z" fill="#D9DDF5" stroke="#D9DDF5" stroke-width="0.00691084"/>
<path d="M20.7876 2.68578C20.686 1.23198 21.7853 -0.0454684 23.2408 0.0277543C26.8737 0.210518 30.4194 1.29279 33.5518 3.19545C37.439 5.55663 40.4985 9.06506 42.3087 13.2375C44.1189 17.4098 44.5909 22.0409 43.6595 26.4927C42.7281 30.9444 40.4392 34.9979 37.1082 38.0946C33.7771 41.1914 29.5678 43.1791 25.06 43.7839C20.5522 44.3886 15.9678 43.5808 11.9383 41.4716C7.90877 39.3624 4.6324 36.0556 2.56052 32.0068C0.890968 28.7442 0.069725 25.1291 0.151951 21.4925C0.184895 20.0356 1.53899 19.0322 2.98154 19.2393C4.42409 19.4464 5.4035 20.7879 5.42579 22.2451C5.46478 24.794 6.08673 27.3126 7.25861 29.6026C8.83325 32.6798 11.3233 35.1929 14.3857 36.7959C17.4482 38.3989 20.9323 39.0129 24.3582 38.5532C27.7841 38.0936 30.9832 36.583 33.5148 34.2294C36.0464 31.8759 37.786 28.7953 38.4938 25.4119C39.2017 22.0286 38.843 18.509 37.4672 15.338C36.0915 12.1669 33.7663 9.50053 30.812 7.70604C28.6133 6.37053 26.1467 5.56685 23.6074 5.34239C22.1557 5.21406 20.8891 4.13958 20.7876 2.68578Z" fill="#FF3D8B"/>
</svg>
