<svg width="45" height="44" viewBox="0 0 45 44" fill="none" xmlns="http://www.w3.org/2000/svg">
<path d="M43.9791 22.0106C43.9791 34.1551 34.1341 44.0001 21.9896 44.0001C9.84506 44.0001 0 34.1551 0 22.0106C0 9.86606 9.84506 0.0209961 21.9896 0.0209961C34.1341 0.0209961 43.9791 9.86606 43.9791 22.0106ZM5.2775 22.0106C5.2775 31.2404 12.7597 38.7226 21.9896 38.7226C31.2194 38.7226 38.7016 31.2404 38.7016 22.0106C38.7016 12.7807 31.2194 5.29849 21.9896 5.29849C12.7597 5.29849 5.2775 12.7807 5.2775 22.0106Z" fill="#EBF1FF"/>
<path d="M0.146355 21.9898C0.146355 34.1343 9.99142 43.9794 22.1359 43.9794C34.2804 43.9794 44.1255 34.1343 44.1255 21.9898C44.1255 9.84531 34.2804 0.000244141 22.1359 0.000244141C9.99142 0.000244141 0.146355 9.84531 0.146355 21.9898ZM38.848 21.9898C38.848 31.2196 31.3657 38.7019 22.1359 38.7019C12.9061 38.7019 5.42385 31.2196 5.42385 21.9898C5.42385 12.76 12.9061 5.27774 22.1359 5.27774C31.3657 5.27774 38.848 12.76 38.848 21.9898Z" fill="#00E87A"/>
<path d="M15.2173 29C14.3453 26.4154 16.3073 25.0513 17.3974 24.6923L20.4501 25.2308L20.9951 23.6154L17.9423 23.0769C17.9423 23.0769 17.8656 22.6892 17.9423 22.4609C18.0125 22.2521 18.2701 22 18.2701 22L21.5401 22.5385L22.0851 20.9231L19.114 19.9677C19.114 19.0645 19.412 18.6718 19.412 18.6718C19.412 18.6718 21.7242 19.4329 22.6302 18.4833C23.441 17.6333 22.6302 16.0769 22.6302 16.0769L23.7202 15C24.6285 15.8974 27.4255 18.4462 28.2976 19.3077C29.1696 20.1692 29.1703 20.9231 28.6253 21.4615L21.5401 29H15.2173Z" fill="#D9DDF5" stroke="#D9DDF5" stroke-width="0.66319"/>
</svg>
