<svg width="58" height="58" viewBox="0 0 58 58" fill="none" xmlns="http://www.w3.org/2000/svg">
<path d="M22.3661 34.2741C21.6658 34.2741 21.0402 34.1545 20.4893 33.9154C19.9427 33.672 19.5135 33.3346 19.2018 32.9033C18.8943 32.472 18.7363 31.983 18.7278 31.4364H20.9313C20.9355 31.6371 20.9996 31.8165 21.1234 31.9745C21.2515 32.1325 21.4245 32.2585 21.6423 32.3524C21.8643 32.4421 22.1078 32.487 22.3725 32.487C22.6416 32.487 22.885 32.44 23.1028 32.346C23.3248 32.2478 23.4935 32.1133 23.6088 31.9425C23.7284 31.7674 23.7839 31.571 23.7753 31.3532C23.7839 31.1268 23.722 30.9283 23.5896 30.7574C23.4615 30.5824 23.2757 30.4457 23.0323 30.3475C22.7889 30.2493 22.5092 30.2002 22.1932 30.2002H21.29V28.6372H22.1932C22.4707 28.6372 22.7184 28.5902 22.9362 28.4963C23.1583 28.4023 23.3291 28.27 23.4487 28.0991C23.5682 27.9283 23.6237 27.7362 23.6152 27.5226C23.6237 27.3134 23.5768 27.1276 23.4743 26.9653C23.3718 26.7988 23.2245 26.6707 23.0323 26.581C22.8444 26.4913 22.6266 26.4465 22.3789 26.4465C22.1312 26.4465 21.9028 26.4935 21.6935 26.5874C21.4886 26.6771 21.3241 26.8031 21.2003 26.9653C21.0807 27.1276 21.0145 27.3155 21.0017 27.529H18.9135C18.9263 26.9867 19.0822 26.5063 19.3811 26.0878C19.68 25.665 20.09 25.3362 20.611 25.1013C21.1362 24.8622 21.7277 24.7426 22.3853 24.7426C23.0387 24.7426 23.6173 24.8579 24.1212 25.0885C24.6294 25.3148 25.0244 25.6309 25.3063 26.0365C25.5881 26.438 25.7248 26.8906 25.7162 27.3945C25.7248 27.7276 25.6522 28.0308 25.4984 28.3041C25.3447 28.5774 25.1291 28.7995 24.8515 28.9703C24.5739 29.1411 24.2558 29.2543 23.8971 29.3098V29.3802C24.3711 29.4358 24.7703 29.5596 25.0949 29.7518C25.4237 29.9439 25.6693 30.1895 25.8315 30.4884C25.9981 30.7873 26.0771 31.129 26.0685 31.5133C26.0771 32.0428 25.9212 32.5168 25.6009 32.9353C25.2849 33.3538 24.8451 33.6827 24.2814 33.9218C23.7177 34.1567 23.0793 34.2741 22.3661 34.2741ZM27.8365 35.5424H26.8372L29.8222 24.4351H30.8343L27.8365 35.5424ZM34.921 34.2741C34.3744 34.2741 33.8748 34.1673 33.4221 33.9538C32.9695 33.7403 32.6108 33.4478 32.346 33.0763C32.0812 32.7047 31.936 32.2841 31.9104 31.8144H33.025C33.0592 32.0877 33.1638 32.3332 33.3389 32.551C33.514 32.7688 33.7403 32.9417 34.0179 33.0699C34.2954 33.198 34.5965 33.262 34.921 33.262C35.3139 33.262 35.6684 33.1723 35.9844 32.993C36.3004 32.8136 36.5481 32.5681 36.7274 32.2564C36.9068 31.9446 36.9964 31.5966 36.9964 31.2122C36.9964 30.8108 36.9046 30.4521 36.721 30.1361C36.5374 29.8201 36.2812 29.5703 35.9523 29.3867C35.6235 29.203 35.2541 29.1112 34.8442 29.1112C34.4428 29.1027 34.0969 29.1646 33.8065 29.297C33.5161 29.4294 33.2855 29.645 33.1147 29.9439H32.0001L32.6535 24.8707H37.6754V25.8956H33.6143L33.2684 28.6116H33.3581C33.5716 28.4493 33.8278 28.3191 34.1268 28.2208C34.4257 28.1226 34.7331 28.0735 35.0492 28.0735C35.6299 28.0735 36.1552 28.2059 36.6249 28.4707C37.0947 28.7354 37.4619 29.1048 37.7267 29.5788C37.9914 30.0528 38.1238 30.5888 38.1238 31.1866C38.1238 31.7759 37.985 32.3055 37.7075 32.7752C37.4299 33.2449 37.0477 33.6122 36.5609 33.877C36.074 34.1417 35.5274 34.2741 34.921 34.2741Z" fill="#030824"/>
<path d="M58 29C58 45.0163 45.0163 58 29 58C12.9837 58 0 45.0163 0 29C0 12.9837 12.9837 0 29 0C45.0163 0 58 12.9837 58 29ZM7.98883 29C7.98883 40.6041 17.3958 50.0112 29 50.0112C40.6041 50.0112 50.0112 40.6041 50.0112 29C50.0112 17.3958 40.6041 7.98883 29 7.98883C17.3958 7.98883 7.98883 17.3958 7.98883 29Z" fill="#F1F3FF"/>
<path d="M18.6875 6.21991C17.7778 4.21019 18.6654 1.8143 20.781 1.18907C23.8103 0.293803 26.9744 -0.103073 30.1487 0.0227588C34.6577 0.201502 39.0628 1.43003 43.0135 3.61061C46.9643 5.79119 50.3516 8.86365 52.9061 12.5836C55.4606 16.3035 57.1117 20.5682 57.7281 25.0385C58.3446 29.5087 57.9093 34.0611 56.457 38.3336C55.0046 42.606 52.5752 46.4806 49.3621 49.6491C46.149 52.8175 42.2408 55.1924 37.9485 56.5849C34.9267 57.5651 31.7733 58.0394 28.6147 57.9974C26.4088 57.9681 24.9059 55.9019 25.2378 53.721C25.5697 51.54 27.6166 50.0813 29.821 49.9951C31.7396 49.9201 33.6451 49.5822 35.4834 48.9859C38.5933 47.977 41.4249 46.2563 43.7528 43.9607C46.0808 41.6651 47.8409 38.8579 48.8932 35.7624C49.9455 32.6669 50.2608 29.3686 49.8142 26.1298C49.3676 22.891 48.1713 19.8011 46.3205 17.1059C44.4697 14.4107 42.0155 12.1847 39.1531 10.6048C36.2907 9.02492 33.0991 8.13482 29.8323 8.00532C27.9012 7.92877 25.9753 8.11922 24.108 8.56625C21.9626 9.07987 19.5973 8.22962 18.6875 6.21991Z" fill="#030824"/>
</svg>
