<svg width="58" height="58" viewBox="0 0 58 58" fill="none" xmlns="http://www.w3.org/2000/svg">
<path d="M18.7149 30.8792L22.5583 24.8707H24.07V27.2024H23.186L20.8992 30.7831V30.8599H26.4401V32.5894H18.7149V30.8792ZM23.2245 32.0642L23.2629 31.3147V24.8707H25.3127V34.146H23.2245V32.0642ZM28.1183 35.5424H27.1191L30.1041 24.4351H31.1161L28.1183 35.5424ZM35.2029 34.2741C34.6563 34.2741 34.1566 34.1673 33.704 33.9538C33.2513 33.7403 32.8926 33.4478 32.6278 33.0763C32.3631 32.7047 32.2179 32.2841 32.1923 31.8144H33.3068C33.341 32.0877 33.4456 32.3332 33.6207 32.551C33.7958 32.7688 34.0221 32.9417 34.2997 33.0699C34.5773 33.198 34.8783 33.262 35.2029 33.262C35.5958 33.262 35.9502 33.1723 36.2662 32.993C36.5822 32.8136 36.8299 32.5681 37.0093 32.2564C37.1886 31.9446 37.2783 31.5966 37.2783 31.2122C37.2783 30.8108 37.1865 30.4521 37.0029 30.1361C36.8192 29.8201 36.563 29.5703 36.2342 29.3867C35.9054 29.203 35.536 29.1112 35.126 29.1112C34.7246 29.1027 34.3787 29.1646 34.0883 29.297C33.7979 29.4294 33.5673 29.645 33.3965 29.9439H32.2819L32.9353 24.8707H37.9573V25.8956H33.8961L33.5502 28.6116H33.6399C33.8534 28.4493 34.1097 28.3191 34.4086 28.2208C34.7075 28.1226 35.015 28.0735 35.331 28.0735C35.9118 28.0735 36.437 28.2059 36.9068 28.4707C37.3765 28.7354 37.7438 29.1048 38.0085 29.5788C38.2733 30.0528 38.4057 30.5888 38.4057 31.1866C38.4057 31.7759 38.2669 32.3055 37.9893 32.7752C37.7117 33.2449 37.3295 33.6122 36.8427 33.877C36.3559 34.1417 35.8093 34.2741 35.2029 34.2741Z" fill="#030824"/>
<path d="M58 29C58 45.0163 45.0163 58 29 58C12.9837 58 0 45.0163 0 29C0 12.9837 12.9837 0 29 0C45.0163 0 58 12.9837 58 29ZM7.98883 29C7.98883 40.6041 17.3958 50.0112 29 50.0112C40.6041 50.0112 50.0112 40.6041 50.0112 29C50.0112 17.3958 40.6041 7.98883 29 7.98883C17.3958 7.98883 7.98883 17.3958 7.98883 29Z" fill="#F1F3FF"/>
<path d="M18.6875 6.21991C17.7778 4.21019 18.6654 1.81422 20.781 1.18899C26.0692 -0.373839 31.7229 -0.404138 37.0722 1.14609C43.7073 3.06897 49.438 7.29724 53.2328 13.0697C57.0275 18.8422 58.637 25.7798 57.7715 32.6334C56.906 39.4871 53.6223 45.8067 48.5116 50.4546C43.4009 55.1024 36.7989 57.7732 29.8941 57.9862C22.9893 58.1992 16.2352 55.9403 10.8478 51.6163C5.46033 47.2922 1.79342 41.187 0.507145 34.3997C-0.529858 28.9278 0.0353966 23.3023 2.09171 18.1858C2.91436 16.1388 5.38359 15.4819 7.29817 16.5778C9.21276 17.6738 9.83524 20.109 9.1209 22.1961C7.94899 25.6203 7.674 29.3121 8.35627 32.9122C9.2882 37.8298 11.945 42.2531 15.8483 45.386C19.7516 48.5189 24.6451 50.1555 29.6478 50.0012C34.6505 49.8469 39.4338 47.9118 43.1366 44.5443C46.8394 41.1768 49.2185 36.5981 49.8456 31.6325C50.4727 26.6669 49.3066 21.6405 46.5572 17.4582C43.8078 13.2758 39.6558 10.2124 34.8485 8.8192C31.3291 7.79927 27.6278 7.72361 24.1081 8.56619C21.9627 9.07978 19.5973 8.22962 18.6875 6.21991Z" fill="#030824"/>
</svg>
