<svg width="58" height="58" viewBox="0 0 58 58" fill="none" xmlns="http://www.w3.org/2000/svg">
<path d="M18.8366 32.5766L22.2252 29.5916C22.5284 29.3226 22.7654 29.0941 22.9362 28.9062C23.107 28.7183 23.2373 28.5262 23.327 28.3297C23.4209 28.1333 23.4679 27.9219 23.4679 27.6956C23.4679 27.4436 23.4081 27.2237 23.2885 27.0358C23.1732 26.8436 23.0131 26.6984 22.8081 26.6002C22.6074 26.4977 22.3768 26.4465 22.1163 26.4465C21.8515 26.4465 21.6167 26.4999 21.4117 26.6066C21.211 26.7134 21.0572 26.8693 20.9505 27.0742C20.8437 27.275 20.7903 27.5141 20.7903 27.7917H18.7149C18.7149 27.1767 18.8559 26.6387 19.1377 26.1775C19.4238 25.7163 19.8231 25.3618 20.3356 25.1141C20.848 24.8665 21.4437 24.7426 22.1227 24.7426C22.8145 24.7426 23.4188 24.86 23.9355 25.0949C24.4565 25.3255 24.86 25.6522 25.1461 26.075C25.4323 26.4977 25.5753 26.9824 25.5753 27.529C25.5753 27.9006 25.5027 28.2571 25.3575 28.5988C25.2166 28.9361 24.9625 29.3141 24.5953 29.7326C24.2323 30.1511 23.7177 30.6507 23.0515 31.2315L21.8729 32.3204V32.3781H25.697V34.146H18.8431L18.8366 32.5766ZM27.465 35.5424H26.4657L29.4507 24.4351H30.4628L27.465 35.5424ZM34.5495 34.2741C34.0029 34.2741 33.5033 34.1673 33.0506 33.9538C32.598 33.7403 32.2392 33.4478 31.9745 33.0763C31.7097 32.7047 31.5645 32.2841 31.5389 31.8144H32.6535C32.6876 32.0877 32.7923 32.3332 32.9673 32.551C33.1424 32.7688 33.3688 32.9417 33.6463 33.0699C33.9239 33.198 34.225 33.262 34.5495 33.262C34.9424 33.262 35.2968 33.1723 35.6128 32.993C35.9289 32.8136 36.1765 32.5681 36.3559 32.2564C36.5352 31.9446 36.6249 31.5966 36.6249 31.2122C36.6249 30.8108 36.5331 30.4521 36.3495 30.1361C36.1659 29.8201 35.9096 29.5703 35.5808 29.3867C35.252 29.203 34.8826 29.1112 34.4727 29.1112C34.0712 29.1027 33.7253 29.1646 33.4349 29.297C33.1446 29.4294 32.914 29.645 32.7431 29.9439H31.6286L32.2819 24.8707H37.3039V25.8956H33.2428L32.8969 28.6116H32.9866C33.2001 28.4493 33.4563 28.3191 33.7552 28.2208C34.0542 28.1226 34.3616 28.0735 34.6776 28.0735C35.2584 28.0735 35.7837 28.2059 36.2534 28.4707C36.7231 28.7354 37.0904 29.1048 37.3552 29.5788C37.6199 30.0528 37.7523 30.5888 37.7523 31.1866C37.7523 31.7759 37.6135 32.3055 37.3359 32.7752C37.0584 33.2449 36.6762 33.6122 36.1893 33.877C35.7025 34.1417 35.1559 34.2741 34.5495 34.2741Z" fill="#030824"/>
<path d="M58 29C58 45.0163 45.0163 58 29 58C12.9837 58 0 45.0163 0 29C0 12.9837 12.9837 0 29 0C45.0163 0 58 12.9837 58 29ZM7.98883 29C7.98883 40.6041 17.3958 50.0112 29 50.0112C40.6041 50.0112 50.0112 40.6041 50.0112 29C50.0112 17.3958 40.6041 7.98883 29 7.98883C17.3958 7.98883 7.98883 17.3958 7.98883 29Z" fill="#F1F3FF"/>
<path d="M18.6875 6.21991C17.7778 4.21019 18.6654 1.81429 20.781 1.18906C24.5533 0.0742106 28.5271 -0.265503 32.4603 0.207184C37.7207 0.839374 42.7073 2.90058 46.8789 6.167C51.0504 9.43342 54.2474 13.7802 56.1227 18.7355C57.5248 22.4405 58.148 26.3798 57.9704 30.3094C57.8708 32.5132 55.7577 33.9495 53.5885 33.5483C51.4192 33.147 50.0265 31.0547 50.0106 28.8487C49.9928 26.3692 49.5361 23.9017 48.651 21.5631C47.2923 17.9729 44.976 14.8236 41.9537 12.457C38.9313 10.0904 35.3183 8.59697 31.5071 8.13894C29.0244 7.84057 26.5194 7.98896 24.1081 8.56624C21.9626 9.07985 19.5973 8.22962 18.6875 6.21991Z" fill="#030824"/>
</svg>
