<svg width="58" height="58" viewBox="0 0 58 58" fill="none" xmlns="http://www.w3.org/2000/svg">
<path d="M23.0771 34.146H20.8864V26.9141H20.8352L18.7534 28.2016V26.2992L21.0402 24.8707H23.0771V34.146ZM25.6458 35.5424H24.6465L27.6315 24.4351H28.6436L25.6458 35.5424ZM32.7303 34.2741C32.1837 34.2741 31.6841 34.1673 31.2314 33.9538C30.7788 33.7403 30.4201 33.4478 30.1553 33.0763C29.8905 32.7047 29.7453 32.2841 29.7197 31.8144H30.8343C30.8684 32.0877 30.9731 32.3332 31.1482 32.551C31.3232 32.7688 31.5496 32.9417 31.8272 33.0699C32.1047 33.198 32.4058 33.262 32.7303 33.262C33.1232 33.262 33.4777 33.1723 33.7937 32.993C34.1097 32.8136 34.3574 32.5681 34.5367 32.2564C34.7161 31.9446 34.8057 31.5966 34.8057 31.2122C34.8057 30.8108 34.7139 30.4521 34.5303 30.1361C34.3467 29.8201 34.0905 29.5703 33.7616 29.3867C33.4328 29.203 33.0634 29.1112 32.6535 29.1112C32.2521 29.1027 31.9062 29.1646 31.6158 29.297C31.3254 29.4294 31.0948 29.645 30.924 29.9439H29.8094L30.4628 24.8707H35.4847V25.8956H31.4236L31.0777 28.6116H31.1674C31.3809 28.4493 31.6371 28.3191 31.936 28.2208C32.235 28.1226 32.5424 28.0735 32.8584 28.0735C33.4392 28.0735 33.9645 28.2059 34.4342 28.4707C34.904 28.7354 35.2712 29.1048 35.536 29.5788C35.8007 30.0528 35.9331 30.5888 35.9331 31.1866C35.9331 31.7759 35.7943 32.3055 35.5168 32.7752C35.2392 33.2449 34.857 33.6122 34.3702 33.877C33.8833 34.1417 33.3367 34.2741 32.7303 34.2741Z" fill="#030824"/>
<path d="M58 29C58 45.0163 45.0163 58 29 58C12.9837 58 0 45.0163 0 29C0 12.9837 12.9837 0 29 0C45.0163 0 58 12.9837 58 29ZM7.98883 29C7.98883 40.6041 17.3958 50.0112 29 50.0112C40.6041 50.0112 50.0112 40.6041 50.0112 29C50.0112 17.3958 40.6041 7.98883 29 7.98883C17.3958 7.98883 7.98883 17.3958 7.98883 29Z" fill="#F1F3FF"/>
<path d="M18.6875 6.21991C17.7778 4.21019 18.6654 1.81426 20.781 1.18904C25.0062 -0.0596165 29.4782 -0.334137 33.8563 0.409505C38.2343 1.15315 42.365 2.88889 45.9409 5.46262C47.7314 6.75132 47.7781 9.30596 46.2558 10.9026C44.7334 12.4992 42.2201 12.5207 40.3645 11.3275C37.9925 9.80214 35.3257 8.76234 32.5185 8.28552C29.7113 7.8087 26.8508 7.90964 24.1081 8.56623C21.9626 9.07984 19.5973 8.22962 18.6875 6.21991Z" fill="#030824"/>
</svg>
