<svg width="58" height="58" viewBox="0 0 58 58" fill="none" xmlns="http://www.w3.org/2000/svg">
<path d="M22.6352 34.2741C21.8323 34.2741 21.1405 34.0883 20.5597 33.7168C19.979 33.3453 19.5327 32.8008 19.221 32.0834C18.9092 31.366 18.7534 30.5076 18.7534 29.5084C18.7534 28.5006 18.9092 27.6401 19.221 26.9269C19.5327 26.2138 19.979 25.6714 20.5597 25.2999C21.1448 24.9284 21.8366 24.7426 22.6352 24.7426C23.438 24.7426 24.1298 24.9284 24.7106 25.2999C25.2956 25.6714 25.744 26.2159 26.0557 26.9333C26.3675 27.6507 26.5233 28.5091 26.5233 29.5084C26.5233 30.5162 26.3675 31.3767 26.0557 32.0898C25.7483 32.803 25.302 33.3453 24.717 33.7168C24.1319 34.0883 23.438 34.2741 22.6352 34.2741ZM22.6352 32.4934C22.9682 32.4934 23.2586 32.3866 23.5063 32.1731C23.754 31.9553 23.944 31.6243 24.0764 31.1802C24.2131 30.7318 24.2792 30.1745 24.275 29.5084C24.275 28.8507 24.2067 28.2977 24.07 27.8493C23.9376 27.4009 23.7476 27.0678 23.4999 26.85C23.2565 26.628 22.9682 26.517 22.6352 26.517C22.3063 26.517 22.0181 26.628 21.7704 26.85C21.527 27.0678 21.337 27.4009 21.2003 27.8493C21.0679 28.2977 21.0017 28.8507 21.0017 29.5084C21.0017 30.1745 21.0679 30.7318 21.2003 31.1802C21.3327 31.6243 21.5227 31.9553 21.7704 32.1731C22.0181 32.3866 22.3063 32.4934 22.6352 32.4934ZM28.2977 35.5424H27.2984L30.2834 24.4351H31.2955L28.2977 35.5424ZM35.3822 34.2741C34.8356 34.2741 34.336 34.1673 33.8833 33.9538C33.4307 33.7403 33.072 33.4478 32.8072 33.0763C32.5424 32.7047 32.3972 32.2841 32.3716 31.8144H33.4862C33.5204 32.0877 33.625 32.3332 33.8001 32.551C33.9752 32.7688 34.2015 32.9417 34.4791 33.0699C34.7566 33.198 35.0577 33.262 35.3822 33.262C35.7751 33.262 36.1296 33.1723 36.4456 32.993C36.7616 32.8136 37.0093 32.5681 37.1886 32.2564C37.368 31.9446 37.4576 31.5966 37.4576 31.2122C37.4576 30.8108 37.3658 30.4521 37.1822 30.1361C36.9986 29.8201 36.7424 29.5703 36.4135 29.3867C36.0847 29.203 35.7153 29.1112 35.3054 29.1112C34.904 29.1027 34.5581 29.1646 34.2677 29.297C33.9773 29.4294 33.7467 29.645 33.5759 29.9439H32.4613L33.1147 24.8707H38.1366V25.8956H34.0755L33.7296 28.6116H33.8193C34.0328 28.4493 34.289 28.3191 34.588 28.2208C34.8869 28.1226 35.1943 28.0735 35.5104 28.0735C36.0911 28.0735 36.6164 28.2059 37.0861 28.4707C37.5559 28.7354 37.9231 29.1048 38.1879 29.5788C38.4526 30.0528 38.585 30.5888 38.585 31.1866C38.585 31.7759 38.4462 32.3055 38.1687 32.7752C37.8911 33.2449 37.5089 33.6122 37.0221 33.877C36.5352 34.1417 35.9886 34.2741 35.3822 34.2741Z" fill="#030824"/>
<path d="M58 29C58 45.0163 45.0163 58 29 58C12.9837 58 0 45.0163 0 29C0 12.9837 12.9837 0 29 0C45.0163 0 58 12.9837 58 29ZM7.98883 29C7.98883 40.6041 17.3958 50.0112 29 50.0112C40.6041 50.0112 50.0112 40.6041 50.0112 29C50.0112 17.3958 40.6041 7.98883 29 7.98883C17.3958 7.98883 7.98883 17.3958 7.98883 29Z" fill="#F1F3FF"/>
</svg>
