<svg width="32" height="32" viewBox="0 0 32 32" fill="none" xmlns="http://www.w3.org/2000/svg">
<path d="M32 16C32 24.8366 24.8366 32 16 32C7.16344 32 0 24.8366 0 16C0 7.16344 7.16344 0 16 0C24.8366 0 32 7.16344 32 16ZM3.35063 16C3.35063 22.9861 9.01395 28.6494 16 28.6494C22.9861 28.6494 28.6494 22.9861 28.6494 16C28.6494 9.01395 22.9861 3.35063 16 3.35063C9.01395 3.35063 3.35063 9.01395 3.35063 16Z" fill="#D9DDF5"/>
<path d="M16 1.67531C16 0.750064 16.7521 -0.00907769 17.6723 0.087627C19.6468 0.295133 21.5705 0.868896 23.3431 1.78454C25.6132 2.95717 27.5694 4.65641 29.0481 6.74009C30.5269 8.82377 31.4851 11.2313 31.8426 13.7612C32.2001 16.2912 31.9465 18.8699 31.1031 21.2818C30.2596 23.6936 28.8508 25.8684 26.9946 27.6241C25.1383 29.3798 22.8885 30.6655 20.4335 31.3735C17.9785 32.0815 15.3896 32.1912 12.8835 31.6935C10.9266 31.3049 9.06456 30.5548 7.39107 29.4865C6.61117 28.9887 6.4961 27.9263 7.07273 27.2027C7.64935 26.4791 8.6988 26.3709 9.49221 26.8469C10.7368 27.5936 12.1043 28.1228 13.5361 28.4071C15.5174 28.8006 17.5642 28.7138 19.5051 28.1541C21.446 27.5943 23.2246 26.5779 24.6921 25.1898C26.1597 23.8018 27.2735 22.0824 27.9403 20.1757C28.6071 18.2689 28.8076 16.2302 28.5249 14.2301C28.2423 12.2299 27.4847 10.3266 26.3157 8.67925C25.1466 7.03192 23.6 5.68852 21.8053 4.76146C20.5084 4.09152 19.1091 3.65308 17.6704 3.46141C16.7533 3.33922 16 2.60057 16 1.67531Z" fill="#FE7575"/>
<path d="M15.3984 15.6334L9.24368 21.3896C8.83779 21.7438 8.26955 22.7091 9.24368 23.7364C10.2178 24.7636 11.3026 24.4005 11.7233 24.0906C13.5977 22.1054 17.3776 18.1041 17.5016 17.9802C17.6566 17.8252 17.8337 17.316 18.7857 17.4045C19.5473 17.4754 20.6085 16.8289 21.0439 16.4968C21.5531 15.9803 22.6778 14.8452 23.1028 14.4379C23.6342 13.9287 24.0548 13.5523 23.6342 13.0431C23.2977 12.6357 22.8446 12.7848 22.6601 12.9103C22.4313 13.1612 21.832 13.7914 21.2653 14.305C20.5568 14.9471 20.3576 14.1279 20.3797 13.9508C20.4019 13.7737 21.376 12.8439 21.8409 12.3789C22.3058 11.914 22.6158 11.4269 22.1509 11.0284C21.7789 10.7096 21.3465 10.8956 21.1767 11.0284C20.8225 11.3753 20.0432 12.1398 19.7598 12.4232C19.4056 12.7774 19.1842 12.9988 18.8521 12.7332C18.5864 12.5206 18.7119 12.2018 18.8078 12.069C19.2285 11.641 20.0919 10.7672 20.1805 10.6964C20.2912 10.6078 20.424 10.475 20.4461 10.1207C20.4683 9.7665 20.1362 9.43441 19.6934 9.41227C19.2506 9.39013 18.6529 10.2757 18.0994 10.7849C17.5459 11.2941 16.5939 12.3789 16.1954 12.9988C15.7969 13.6187 15.8412 15.0135 15.7748 15.1463C15.7216 15.2526 15.5017 15.5153 15.3984 15.6334Z" fill="#D9DDF5" stroke="#D9DDF5" stroke-width="0.00625423"/>
</svg>
