<svg width="32" height="32" viewBox="0 0 32 32" fill="none" xmlns="http://www.w3.org/2000/svg">
<path d="M32 16C32 24.8366 24.8366 32 16 32C7.16344 32 0 24.8366 0 16C0 7.16344 7.16344 0 16 0C24.8366 0 32 7.16344 32 16ZM3.35063 16C3.35063 22.9861 9.01395 28.6494 16 28.6494C22.9861 28.6494 28.6494 22.9861 28.6494 16C28.6494 9.01395 22.9861 3.35063 16 3.35063C9.01395 3.35063 3.35063 9.01395 3.35063 16Z" fill="#D9DDF5"/>
<path d="M16 1.67531C16 0.750064 16.7522 -0.00908975 17.6724 0.0875999C21.0902 0.446732 24.3184 1.89966 26.8633 4.2531C29.82 6.98746 31.6369 10.7363 31.9512 14.7513C32.2655 18.7663 31.0541 22.7522 28.5589 25.9134C26.0636 29.0745 22.468 31.1784 18.4898 31.8051C14.5115 32.4318 10.4433 31.5352 7.09702 29.2942C3.75077 27.0533 1.37268 23.6329 0.437422 19.7157C-0.497837 15.7985 0.0785332 11.6726 2.05149 8.1617C3.74959 5.13986 6.37477 2.76485 9.51666 1.37237C10.3626 0.997467 11.3117 1.48861 11.5962 2.36905C11.8806 3.24949 11.3908 4.18396 10.5556 4.58219C8.21297 5.69921 6.25717 7.51705 4.97251 9.80315C3.41272 12.5788 2.95705 15.8407 3.69645 18.9376C4.43585 22.0344 6.31593 24.7386 8.96143 26.5102C11.6069 28.2819 14.8232 28.9907 17.9684 28.4953C21.1135 27.9998 23.9562 26.3365 25.9289 23.8374C27.9016 21.3382 28.8593 18.187 28.6108 15.0128C28.3623 11.8386 26.9259 8.87481 24.5883 6.71307C22.6631 4.93263 20.2431 3.8041 17.6705 3.46138C16.7534 3.3392 16 2.60057 16 1.67531Z" fill="#FE7575"/>
<path d="M15.3984 15.6334L9.24368 21.3896C8.83779 21.7438 8.26955 22.7091 9.24368 23.7364C10.2178 24.7636 11.3026 24.4005 11.7233 24.0906C13.5977 22.1054 17.3776 18.1041 17.5016 17.9802C17.6566 17.8252 17.8337 17.316 18.7857 17.4045C19.5473 17.4754 20.6085 16.8289 21.0439 16.4968C21.5531 15.9803 22.6778 14.8452 23.1028 14.4379C23.6342 13.9287 24.0548 13.5523 23.6342 13.0431C23.2977 12.6357 22.8446 12.7848 22.6601 12.9103C22.4313 13.1612 21.832 13.7914 21.2653 14.305C20.5568 14.9471 20.3576 14.1279 20.3797 13.9508C20.4019 13.7737 21.376 12.8439 21.8409 12.3789C22.3058 11.914 22.6158 11.4269 22.1509 11.0284C21.7789 10.7096 21.3465 10.8956 21.1767 11.0284C20.8225 11.3753 20.0432 12.1398 19.7598 12.4232C19.4056 12.7774 19.1842 12.9988 18.8521 12.7332C18.5864 12.5206 18.7119 12.2018 18.8078 12.069C19.2285 11.641 20.0919 10.7672 20.1805 10.6964C20.2912 10.6078 20.424 10.475 20.4461 10.1207C20.4683 9.7665 20.1362 9.43441 19.6934 9.41227C19.2506 9.39013 18.6529 10.2757 18.0994 10.7849C17.5459 11.2941 16.5939 12.3789 16.1954 12.9988C15.7969 13.6187 15.8412 15.0135 15.7748 15.1463C15.7216 15.2526 15.5017 15.5153 15.3984 15.6334Z" fill="#D9DDF5" stroke="#D9DDF5" stroke-width="0.00625423"/>
</svg>
