<svg width="32" height="32" viewBox="0 0 32 32" fill="none" xmlns="http://www.w3.org/2000/svg">
<path d="M32 16C32 24.8366 24.8366 32 16 32C7.16344 32 0 24.8366 0 16C0 7.16344 7.16344 0 16 0C24.8366 0 32 7.16344 32 16ZM3.35063 16C3.35063 22.9861 9.01395 28.6494 16 28.6494C22.9861 28.6494 28.6494 22.9861 28.6494 16C28.6494 9.01395 22.9861 3.35063 16 3.35063C9.01395 3.35063 3.35063 9.01395 3.35063 16Z" fill="#D9DDF5"/>
<path d="M15.7646 1.67531C15.7646 0.750064 16.5168 -0.0090939 17.437 0.0875873C21.0658 0.468855 24.4746 2.08253 27.0784 4.68629C30.0789 7.68687 31.7646 11.7565 31.7646 16C31.7646 20.2435 30.0789 24.3131 27.0784 27.3137C24.4746 29.9175 21.0658 31.5311 17.437 31.9124C16.5168 32.0091 15.7647 31.2499 15.7647 30.3247C15.7647 29.3994 16.518 28.6608 17.4352 28.5386C20.1734 28.1739 22.7341 26.9194 24.7091 24.9445C27.0813 22.5722 28.414 19.3548 28.414 16C28.414 12.6452 27.0813 9.42776 24.7091 7.05554C22.7341 5.08058 20.1734 3.82613 17.4352 3.46137C16.518 3.3392 15.7646 2.60057 15.7646 1.67531Z" fill="#5CA0FF"/>
<path d="M15.1633 14.6922L9.00857 20.4484C8.60268 20.8027 8.03444 21.7679 9.00857 22.7952C9.9827 23.8225 11.0675 23.4594 11.4882 23.1494C13.3626 21.1643 17.1425 17.163 17.2665 17.039C17.4215 16.884 17.5986 16.3748 18.5506 16.4634C19.3122 16.5342 20.3734 15.8878 20.8088 15.5557C21.318 15.0391 22.4427 13.9041 22.8677 13.4967C23.3991 12.9875 23.8197 12.6112 23.3991 12.1019C23.0626 11.6946 22.6094 11.8437 22.4249 11.9691C22.1962 12.22 21.5969 12.8503 21.0302 13.3639C20.3217 14.0059 20.1225 13.1868 20.1446 13.0097C20.1667 12.8325 21.1409 11.9027 21.6058 11.4378C22.0707 10.9728 22.3807 10.4858 21.9157 10.0873C21.5438 9.76847 21.1114 9.95444 20.9416 10.0873C20.5874 10.4341 19.8081 11.1987 19.5247 11.4821C19.1705 11.8363 18.9491 12.0577 18.617 11.792C18.3513 11.5795 18.4768 11.2607 18.5727 11.1278C18.9934 10.6998 19.8568 9.82603 19.9454 9.75519C20.0561 9.66664 20.1889 9.5338 20.211 9.17957C20.2332 8.82534 19.9011 8.49325 19.4583 8.47111C19.0155 8.44897 18.4177 9.33454 17.8643 9.84374C17.3108 10.3529 16.3588 11.4378 15.9603 12.0577C15.5618 12.6776 15.6061 14.0723 15.5396 14.2052C15.4865 14.3114 15.2666 14.5742 15.1633 14.6922Z" fill="#D9DDF5" stroke="#D9DDF5" stroke-width="0.00625423"/>
</svg>
