<svg width="33" height="32" viewBox="0 0 33 32" fill="none" xmlns="http://www.w3.org/2000/svg">
<path d="M32.7486 15.8743C32.7486 24.6414 25.6414 31.7486 16.8743 31.7486C8.10716 31.7486 1 24.6414 1 15.8743C1 7.10716 8.10716 0 16.8743 0C25.6414 0 32.7486 7.10716 32.7486 15.8743ZM4.3243 15.8743C4.3243 22.8055 9.94312 28.4243 16.8743 28.4243C23.8055 28.4243 29.4243 22.8055 29.4243 15.8743C29.4243 8.94312 23.8055 3.3243 16.8743 3.3243C9.94312 3.3243 4.3243 8.94312 4.3243 15.8743Z" fill="#D9DDF5"/>
<path d="M0.766558 15.8743C0.766558 24.6414 7.87372 31.7486 16.6408 31.7486C25.408 31.7486 32.5151 24.6414 32.5151 15.8743C32.5151 7.10716 25.408 0 16.6408 0C7.87372 0 0.766558 7.10716 0.766558 15.8743ZM29.1908 15.8743C29.1908 22.8055 23.572 28.4243 16.6408 28.4243C9.70968 28.4243 4.09086 22.8055 4.09086 15.8743C4.09086 8.94312 9.70968 3.3243 16.6408 3.3243C23.572 3.3243 29.1908 8.94312 29.1908 15.8743Z" fill="#FE7575"/>
<path d="M16.044 14.5769L9.93769 20.2879C9.535 20.6394 8.97122 21.5971 9.93769 22.6163C10.9042 23.6354 11.9805 23.2752 12.3978 22.9677C14.2575 20.9981 18.0077 17.0283 18.1307 16.9053C18.2845 16.7515 18.4602 16.2463 19.4047 16.3342C20.1603 16.4045 21.2132 15.7631 21.6452 15.4336C22.1504 14.9211 23.2662 13.795 23.688 13.3908C24.2151 12.8856 24.6325 12.5122 24.2151 12.007C23.8813 11.6029 23.4317 11.7508 23.2487 11.8752C23.0217 12.1242 22.4272 12.7494 21.8648 13.259C21.162 13.896 20.9643 13.0833 20.9862 12.9076C21.0082 12.7319 21.9747 11.8093 22.4359 11.3481C22.8972 10.8868 23.2047 10.4035 22.7435 10.0082C22.3744 9.69187 21.9454 9.87638 21.777 10.0082C21.4255 10.3523 20.6524 11.1108 20.3712 11.392C20.0198 11.7434 19.8001 11.9631 19.4706 11.6995C19.207 11.4886 19.3315 11.1723 19.4267 11.0405C19.844 10.6159 20.7007 9.74898 20.7885 9.67869C20.8984 9.59083 21.0302 9.45904 21.0521 9.10759C21.0741 8.75615 20.7446 8.42667 20.3053 8.4047C19.866 8.38274 19.2729 9.26135 18.7238 9.76655C18.1747 10.2718 17.2302 11.3481 16.8348 11.9631C16.4394 12.5781 16.4834 13.9619 16.4175 14.0937C16.3647 14.1991 16.1465 14.4598 16.044 14.5769Z" fill="#FFB0B0" stroke="#D9DDF5" stroke-width="0.00620509"/>
</svg>
