<svg width="32" height="32" viewBox="0 0 32 32" fill="none" xmlns="http://www.w3.org/2000/svg">
<path d="M32 16C32 24.8366 24.8366 32 16 32C7.16344 32 0 24.8366 0 16C0 7.16344 7.16344 0 16 0C24.8366 0 32 7.16344 32 16ZM3.35063 16C3.35063 22.9861 9.01395 28.6494 16 28.6494C22.9861 28.6494 28.6494 22.9861 28.6494 16C28.6494 9.01395 22.9861 3.35063 16 3.35063C9.01395 3.35063 3.35063 9.01395 3.35063 16Z" fill="#D9DDF5"/>
<path d="M16 1.67531C16 0.750064 16.7521 -0.00908379 17.6723 0.0876165C20.5153 0.386376 23.2374 1.44291 25.5476 3.16086C28.3076 5.21332 30.3328 8.10057 31.3229 11.3945C32.3129 14.6885 32.2151 18.2139 31.044 21.4479C29.8728 24.6819 27.6907 27.4524 24.8211 29.3487C21.9515 31.245 18.5472 32.1661 15.1129 31.9754C11.6787 31.7847 8.3973 30.4924 5.75528 28.2901C3.11327 26.0877 1.25128 23.0927 0.445383 19.7489C-0.229168 16.95 -0.133762 14.0316 0.706114 11.2992C0.977959 10.4148 1.97122 10.0205 2.82238 10.3833C3.67354 10.7461 4.05766 11.7287 3.81046 12.6204C3.2387 14.6825 3.19707 16.8657 3.70274 18.9638C4.33987 21.6073 5.81193 23.9752 7.90067 25.7164C9.98941 27.4575 12.5836 28.4792 15.2987 28.6299C18.0138 28.7807 20.7052 28.0525 22.9738 26.5533C25.2425 25.0541 26.9676 22.8638 27.8935 20.307C28.8194 17.7502 28.8967 14.9632 28.114 12.359C27.3313 9.75482 25.7302 7.4722 23.5482 5.84956C21.8163 4.56171 19.7917 3.744 17.6705 3.4614C16.7533 3.33921 16 2.60057 16 1.67531Z" fill="#FE7575"/>
<path d="M15.3984 15.6334L9.24368 21.3896C8.83779 21.7438 8.26955 22.7091 9.24368 23.7364C10.2178 24.7636 11.3026 24.4005 11.7233 24.0906C13.5977 22.1054 17.3776 18.1041 17.5016 17.9802C17.6566 17.8252 17.8337 17.316 18.7857 17.4045C19.5473 17.4754 20.6085 16.8289 21.0439 16.4968C21.5531 15.9803 22.6778 14.8452 23.1028 14.4379C23.6342 13.9287 24.0548 13.5523 23.6342 13.0431C23.2977 12.6357 22.8446 12.7848 22.6601 12.9103C22.4313 13.1612 21.832 13.7914 21.2653 14.305C20.5568 14.9471 20.3576 14.1279 20.3797 13.9508C20.4019 13.7737 21.376 12.8439 21.8409 12.3789C22.3058 11.914 22.6158 11.4269 22.1509 11.0284C21.7789 10.7096 21.3465 10.8956 21.1767 11.0284C20.8225 11.3753 20.0432 12.1398 19.7598 12.4232C19.4056 12.7774 19.1842 12.9988 18.8521 12.7332C18.5864 12.5206 18.7119 12.2018 18.8078 12.069C19.2285 11.641 20.0919 10.7672 20.1805 10.6964C20.2912 10.6078 20.424 10.475 20.4461 10.1207C20.4683 9.7665 20.1362 9.43441 19.6934 9.41227C19.2506 9.39013 18.6529 10.2757 18.0994 10.7849C17.5459 11.2941 16.5939 12.3789 16.1954 12.9988C15.7969 13.6187 15.8412 15.0135 15.7748 15.1463C15.7216 15.2526 15.5017 15.5153 15.3984 15.6334Z" fill="#D9DDF5" stroke="#D9DDF5" stroke-width="0.00625423"/>
</svg>
