<svg width="33" height="33" viewBox="0 0 33 33" fill="none" xmlns="http://www.w3.org/2000/svg">
<path d="M32.909 16.0736C32.909 24.9509 25.7126 32.1473 16.8354 32.1473C7.95813 32.1473 0.761719 24.9509 0.761719 16.0736C0.761719 7.19641 7.95813 0 16.8354 0C25.7126 0 32.909 7.19641 32.909 16.0736ZM4.60332 16.0736C4.60332 22.8292 10.0798 28.3057 16.8354 28.3057C23.5909 28.3057 29.0674 22.8292 29.0674 16.0736C29.0674 9.31807 23.5909 3.8416 16.8354 3.8416C10.0798 3.8416 4.60332 9.31807 4.60332 16.0736Z" fill="#D9DDF5"/>
<path d="M16.8455 14.9413L11.8631 19.601C11.5346 19.8878 11.0746 20.6692 11.8631 21.5008C12.6517 22.3324 13.5299 22.0385 13.8704 21.7876C15.3879 20.1805 18.4478 16.9414 18.5481 16.841C18.6736 16.7156 18.817 16.3034 19.5876 16.375C20.2042 16.4324 21.0632 15.9091 21.4157 15.6402C21.8279 15.222 22.7384 14.3032 23.0825 13.9735C23.5126 13.5613 23.8531 13.2566 23.5126 12.8444C23.2402 12.5146 22.8734 12.6353 22.724 12.7368C22.5388 12.94 22.0537 13.4501 21.5949 13.8659C21.0214 14.3857 20.8601 13.7226 20.878 13.5792C20.896 13.4358 21.6845 12.6831 22.0609 12.3067C22.4373 11.9303 22.6882 11.536 22.3118 11.2134C22.0107 10.9554 21.6606 11.1059 21.5232 11.2134C21.2365 11.4942 20.6056 12.1131 20.3762 12.3425C20.0895 12.6293 19.9102 12.8085 19.6414 12.5935C19.4263 12.4214 19.5279 12.1633 19.6056 12.0558C19.9461 11.7093 20.645 11.002 20.7167 10.9446C20.8063 10.8729 20.9139 10.7654 20.9318 10.4786C20.9497 10.1919 20.6809 9.92304 20.3224 9.90511C19.964 9.88719 19.4801 10.6041 19.032 11.0163C18.584 11.4285 17.8133 12.3067 17.4907 12.8085C17.1681 13.3103 17.204 14.4394 17.1502 14.547C17.1072 14.633 16.9292 14.8457 16.8455 14.9413Z" fill="#D9DDF5" stroke="#D9DDF5" stroke-width="0.00506295"/>
</svg>
