<svg width="80" height="80" viewBox="0 0 80 80" fill="none" xmlns="http://www.w3.org/2000/svg">
<circle cx="40" cy="40" r="39.4444" fill="#F2F2F5" stroke="#F2F2F5" stroke-width="1.11112"/>
<circle cx="37.9445" cy="28.2176" r="18.218" fill="#F9F4CA"/>
<path d="M33.4399 32.0794C34.1747 32.7477 41.9414 33.8616 43.0058 32.0798" stroke="#111111" stroke-width="0.878465" stroke-linecap="round"/>
<circle cx="30.7012" cy="26.1793" r="1.3177" transform="rotate(14.4646 30.7012 26.1793)" fill="#111111"/>
<circle cx="45.6358" cy="26.2002" r="1.3177" transform="rotate(14.4646 45.6358 26.2002)" fill="#111111"/>
<path d="M32.6099 30.4308C33.0735 30.9432 33.7812 32.2609 32.9027 33.4322" stroke="#111111" stroke-width="0.878465" stroke-linecap="round"/>
<path d="M43.7158 30.4308C43.2522 30.9432 42.5445 32.2609 43.423 33.4322" stroke="#111111" stroke-width="0.878465" stroke-linecap="round"/>
<path d="M14.7629 36.908C15.3608 34.6305 18.3265 33.2947 20.4234 32.7609L21.853 34.6305C19.7871 34.8281 16.669 36.1823 18.0672 37.8994C20.0273 40.3064 31.0598 40.4378 35.6022 40.2632C40.8882 40.06 50.3063 39.4592 52.558 38.8905C54.1135 38.4976 58.4852 37.8234 58.4852 36.4507C58.4852 34.4619 55.2562 34.6586 53.8003 34.6586C53.9459 34.3674 54.3748 33.8857 55.1106 32.7659C57.3662 33.0163 60.4483 33.4609 61.2688 35.6496C62.0773 37.8067 60.5799 39.1383 58.4852 40.2632C54.3672 42.4747 38.0897 43.4941 32.3005 43.3183C26.5113 43.1426 13.462 41.8628 14.7629 36.908Z" fill="url(#paint0_linear_3537_59055)"/>
<path d="M27.1885 59.8165H17.5497V59.0578H27.1885V59.8165ZM21.2843 56.1649H18.4508V55.4062H21.2843V56.1649ZM21.8889 55.833C21.881 56.3309 21.8455 56.8605 21.7822 57.4217C21.719 57.9828 21.5925 58.623 21.4028 59.3423L20.4899 59.2237C20.6322 58.6863 20.7389 58.1903 20.8101 57.7358C20.8812 57.2814 20.9247 56.9119 20.9405 56.6273C20.9563 56.3428 20.9681 56.0266 20.976 55.6789V55.4062H21.8889V55.6789V55.833ZM25.4694 56.1649H22.6003V55.4062H25.4694V56.1649ZM25.9792 55.833C25.9792 56.1729 25.9732 56.5009 25.9614 56.817C25.9495 57.1332 25.912 57.5145 25.8488 57.9611C25.7855 58.4077 25.6867 58.8839 25.5524 59.3897L24.6513 59.2593C24.7778 58.7535 24.8726 58.2871 24.9359 57.8603C24.9991 57.4335 25.0366 57.0818 25.0485 56.8052C25.0604 56.5285 25.0702 56.2045 25.0781 55.833V55.4062H25.9792V55.833ZM26.0029 61.666H19.6838V64.8552H18.7472V60.9428H26.0029V61.666ZM26.074 65.3769H18.7472V64.6418H26.074V65.3769ZM25.7302 63.48H19.3044V62.7805H25.7302V63.48ZM36.3885 65.5192H35.4519V54.9794H36.3885V65.5192ZM37.9891 60.1129H36.0803V59.3304H37.9891V60.1129ZM31.2431 56.1294C31.2431 57.0225 31.1641 57.8722 31.006 58.6784C30.8479 59.4846 30.5871 60.267 30.2235 61.0258C29.86 61.7846 29.3699 62.488 28.7534 63.1361L28.0065 62.6026C28.5756 62.0178 29.036 61.3854 29.3877 60.7057C29.7394 60.026 29.9924 59.3166 30.1465 58.5776C30.3006 57.8386 30.3777 57.0581 30.3777 56.2361V56.1294H31.2431ZM30.7096 56.9119H28.3385V56.1294H30.7096V56.9119ZM34.1359 56.1294C34.1359 57.0857 34.0727 57.9986 33.9463 58.8681C33.8198 59.7375 33.5827 60.601 33.2349 61.4586C32.8871 62.3161 32.405 63.1085 31.7885 63.8356L31.0297 63.314C31.6067 62.658 32.0612 61.9387 32.3931 61.1562C32.7251 60.3737 32.9543 59.5755 33.0808 58.7614C33.2072 57.9473 33.2705 57.0976 33.2705 56.2124V56.1294H34.1359ZM33.638 56.9119H31.5751V56.1294H33.638V56.9119ZM42.1386 58.216C42.1386 58.9352 42.0003 59.6486 41.7236 60.356C41.447 61.0634 41.0775 61.6937 40.6151 62.247C40.1528 62.8002 39.6449 63.2152 39.0917 63.4918L38.5344 62.7568C39.0324 62.5117 39.4987 62.1462 39.9334 61.6601C40.3681 61.174 40.7159 60.6267 40.9767 60.0181C41.2376 59.4095 41.368 58.8088 41.368 58.216V56.4732H42.1386V58.216ZM42.3046 58.216C42.3046 58.793 42.433 59.37 42.6899 59.9469C42.9468 60.5239 43.2945 61.0357 43.7332 61.4823C44.1719 61.9288 44.6481 62.2667 45.1618 62.4959L44.6402 63.231C44.0711 62.9702 43.5514 62.5829 43.0811 62.0691C42.6109 61.5554 42.2394 60.9626 41.9667 60.2908C41.694 59.6189 41.5577 58.9273 41.5577 58.216V56.4732H42.3046V58.216ZM44.818 56.8407H38.8783V56.0701H44.818V56.8407ZM47.2247 65.5192H46.2881V54.9794H47.2247V65.5192ZM52.3346 63.5748H51.4217V60.4212H52.3346V63.5748ZM56.2825 63.5748H55.3459V60.4212H56.2825V63.5748ZM58.6774 64.1676H49.0268V63.3851H58.6774V64.1676ZM53.8284 55.6433C54.5793 55.6433 55.2452 55.7559 55.8261 55.9812C56.407 56.2064 56.8615 56.5246 57.1895 56.9356C57.5175 57.3466 57.6815 57.8208 57.6815 58.3583C57.6815 58.8957 57.5175 59.368 57.1895 59.775C56.8615 60.1821 56.407 60.4982 55.8261 60.7235C55.2452 60.9488 54.5793 61.0614 53.8284 61.0614C53.0854 61.0614 52.4215 60.9488 51.8366 60.7235C51.2517 60.4982 50.7953 60.1821 50.4673 59.775C50.1393 59.368 49.9753 58.8957 49.9753 58.3583C49.9753 57.8208 50.1393 57.3466 50.4673 56.9356C50.7953 56.5246 51.2517 56.2064 51.8366 55.9812C52.4215 55.7559 53.0854 55.6433 53.8284 55.6433ZM53.8284 56.4139C53.2593 56.406 52.7515 56.4831 52.3049 56.6451C51.8584 56.8071 51.5086 57.0363 51.2557 57.3327C51.0028 57.6291 50.8763 57.971 50.8763 58.3583C50.8763 58.7456 51.0028 59.0874 51.2557 59.3838C51.5086 59.6802 51.8584 59.9114 52.3049 60.0774C52.7515 60.2433 53.2593 60.3263 53.8284 60.3263C54.3975 60.3263 54.9053 60.2433 55.3519 60.0774C55.7984 59.9114 56.1482 59.6802 56.4011 59.3838C56.654 59.0874 56.7805 58.7456 56.7805 58.3583C56.7805 57.971 56.654 57.6291 56.4011 57.3327C56.1482 57.0363 55.7984 56.8071 55.3519 56.6451C54.9053 56.4831 54.3975 56.406 53.8284 56.4139ZM61.1434 62.1403H60.1475L60.0645 55.9753H61.2264L61.1434 62.1403ZM60.6455 64.63C60.5111 64.63 60.3846 64.5944 60.2661 64.5233C60.1475 64.4521 60.0546 64.3573 59.9875 64.2387C59.9203 64.1202 59.8867 63.9937 59.8867 63.8593C59.8867 63.725 59.9203 63.5985 59.9875 63.48C60.0546 63.3614 60.1475 63.2685 60.2661 63.2014C60.3846 63.1342 60.5111 63.1006 60.6455 63.1006C60.7798 63.1006 60.9063 63.1342 61.0248 63.2014C61.1434 63.2685 61.2363 63.3614 61.3035 63.48C61.3706 63.5985 61.4042 63.725 61.4042 63.8593C61.4042 63.9937 61.3706 64.1202 61.3035 64.2387C61.2363 64.3573 61.1434 64.4521 61.0248 64.5233C60.9063 64.5944 60.7798 64.63 60.6455 64.63Z" fill="#F7D00F"/>
<defs>
<linearGradient id="paint0_linear_3537_59055" x1="44.1914" y1="33.9435" x2="44.712" y2="45.3947" gradientUnits="userSpaceOnUse">
<stop stop-color="#F9F4CA"/>
<stop offset="1" stop-color="#F9AF30"/>
</linearGradient>
</defs>
</svg>
