<svg width="80" height="80" viewBox="0 0 80 80" fill="none" xmlns="http://www.w3.org/2000/svg">
<circle cx="40" cy="40" r="39.4444" fill="#F2F2F5" stroke="#F2F2F5" stroke-width="1.11112"/>
<circle cx="40.0005" cy="27.8161" r="18.9277" fill="#FFC8C7"/>
<path d="M15.0067 37.0253C14.3079 33.336 20.4232 32.0564 22.6629 31.4863L22.948 33.9299C20.7414 34.1409 17.6266 35.5171 19.1201 37.3512C21.2136 39.9221 32.6943 40.2865 37.5692 39.8759C43.2152 39.6589 54.1857 38.8578 55.9594 38.4098C57.6209 37.9901 61.8424 37.7584 61.8424 36.2923C61.8424 34.1681 57.5083 34.0137 55.9594 33.9299C56.0425 33.7039 56.2489 32.5306 56.2221 31.3643C58.6312 31.6317 64.0816 32.3194 65.2634 34.9482C66.3259 37.3119 64.5276 38.6744 62.2903 39.8759C57.8918 42.2381 40.2511 43.7422 34.0676 43.5545C27.8842 43.3667 16.0248 42.4012 15.0067 37.0253Z" fill="url(#paint0_linear_3537_59053)"/>
<path d="M29.9907 24.0092C30.7454 22.6903 32.292 22.7979 32.9368 23.3148C32.9457 23.3219 32.958 23.322 32.9671 23.3151C33.386 22.998 34.0232 22.8665 34.6725 23.0013C35.4941 23.1719 36.3003 24.0092 36.2073 25.4669C36.1143 26.9246 34.3004 29.0181 32.8742 28.956C31.4479 28.894 28.896 25.9221 29.9907 24.0092Z" fill="#FF7170" stroke="#FF7170" stroke-width="0.108775" stroke-linecap="round"/>
<path d="M44.0512 24.0092C44.806 22.6903 46.3525 22.7979 46.9974 23.3148C47.0062 23.3219 47.0186 23.322 47.0276 23.3151C47.4465 22.998 48.0837 22.8665 48.733 23.0013C49.5547 23.1719 50.3608 24.0092 50.2678 25.4669C50.1748 26.9246 48.361 29.0181 46.9347 28.956C45.5085 28.894 42.9566 25.9221 44.0512 24.0092Z" fill="#FF7170" stroke="#FF7170" stroke-width="0.108775" stroke-linecap="round"/>
<path d="M37.2959 31.6013C38.4084 33.3937 41.2638 35.9029 43.7854 31.6013" stroke="#FF7170" stroke-width="1.08159" stroke-linecap="round"/>
<path d="M22.164 57.5532C22.164 58.1691 22.0347 58.7439 21.776 59.2777C21.5174 59.8115 21.1519 60.2713 20.6797 60.6573C20.2076 61.0432 19.6594 61.3347 19.0353 61.5318L18.5549 60.7804C19.1051 60.608 19.5917 60.3575 20.0146 60.0291C20.4375 59.7006 20.7701 59.3228 21.0123 58.8958C21.2546 58.4688 21.3757 58.0213 21.3757 57.5532V56.654H22.164V57.5532ZM22.3488 57.5286C22.3488 57.9556 22.4638 58.3662 22.6937 58.7603C22.9236 59.1545 23.2459 59.5015 23.6606 59.8012C24.0753 60.1009 24.5496 60.3329 25.0833 60.4971L24.6276 61.2485C24.0199 61.0679 23.4841 60.7948 23.0201 60.4294C22.5562 60.064 22.1948 59.6308 21.9362 59.1299C21.6775 58.6289 21.5482 58.0952 21.5482 57.5286V56.654H22.3488V57.5286ZM24.7877 57.2083H18.8875V56.42H24.7877V57.2083ZM27.202 61.4456H26.2412V55.7918H27.202V61.4456ZM28.8526 58.9944H26.7709V58.1937H28.8526V58.9944ZM27.202 64.5743H21.1909V66.2988H20.2425V63.8599H26.2412V62.7267H20.2178V61.9506H27.202V64.5743ZM27.6085 66.6437H20.2425V65.88H27.6085V66.6437ZM38.8423 62.5912H37.9185V55.8041H38.8423V62.5912ZM38.1895 59.6226H36.0708V58.8219H38.1895V59.6226ZM36.4896 62.4187H35.5658V55.9765H36.4896V62.4187ZM35.0977 57.8488H29.4808V57.0482H35.0977V57.8488ZM32.3016 58.4031C32.7614 58.4031 33.17 58.4791 33.5272 58.631C33.8844 58.7829 34.1615 59.0005 34.3586 59.2838C34.5557 59.5671 34.6543 59.8977 34.6543 60.2754C34.6543 60.645 34.5557 60.9714 34.3586 61.2547C34.1615 61.538 33.8844 61.7577 33.5272 61.9137C33.17 62.0697 32.7614 62.1477 32.3016 62.1477C31.8499 62.1477 31.4455 62.0697 31.0883 61.9137C30.731 61.7577 30.4539 61.538 30.2568 61.2547C30.0597 60.9714 29.9612 60.645 29.9612 60.2754C29.9612 59.8977 30.0597 59.5671 30.2568 59.2838C30.4539 59.0005 30.729 58.7829 31.0821 58.631C31.4352 58.4791 31.8417 58.4031 32.3016 58.4031ZM32.3016 59.1299C32.0141 59.1299 31.7575 59.1771 31.5317 59.2715C31.3059 59.366 31.1314 59.4994 31.0082 59.6718C30.885 59.8443 30.8234 60.0455 30.8234 60.2754C30.8234 60.4971 30.8871 60.6963 31.0144 60.8728C31.1416 61.0494 31.3161 61.1849 31.5379 61.2793C31.7596 61.3738 32.0141 61.421 32.3016 61.421C32.589 61.421 32.8456 61.3738 33.0714 61.2793C33.2972 61.1849 33.4717 61.0494 33.5949 60.8728C33.7181 60.6963 33.7797 60.4971 33.7797 60.2754C33.7797 60.0455 33.7181 59.8443 33.5949 59.6718C33.4717 59.4994 33.2993 59.366 33.0776 59.2715C32.8559 59.1771 32.5972 59.1299 32.3016 59.1299ZM32.782 57.5162H31.8212V55.841H32.782V57.5162ZM33.2377 63.2933C33.2377 63.7531 33.1351 64.2007 32.9298 64.6359C32.7245 65.0711 32.4329 65.4633 32.0552 65.8123C31.6775 66.1613 31.2299 66.4302 30.7126 66.6191L30.2445 65.88C30.6879 65.724 31.08 65.5064 31.4208 65.2272C31.7616 64.948 32.0224 64.638 32.203 64.2972C32.3837 63.9564 32.474 63.6217 32.474 63.2933V62.8991H33.2377V63.2933ZM33.4225 63.2933C33.4225 63.6546 33.4964 64.0077 33.6442 64.3526C33.792 64.6975 34.0137 65.0116 34.3094 65.2949C34.605 65.5782 34.9663 65.802 35.3933 65.9662L34.9745 66.7053C34.4736 66.5164 34.0507 66.2434 33.7058 65.8862C33.3609 65.5289 33.1043 65.1266 32.9359 64.679C32.7676 64.2315 32.6834 63.7696 32.6834 63.2933V62.8991H33.4225V63.2933ZM37.2656 63.2933C37.2656 63.7121 37.1794 64.1473 37.0069 64.599C36.8345 65.0506 36.5758 65.4653 36.2309 65.843C35.886 66.2208 35.4672 66.5082 34.9745 66.7053L34.5557 65.9662C34.9745 65.7856 35.3317 65.5454 35.6274 65.2456C35.923 64.9459 36.1488 64.6236 36.3048 64.2787C36.4609 63.9338 36.5389 63.6053 36.5389 63.2933V62.8991H37.2656V63.2933ZM37.4873 63.2933C37.4873 63.6464 37.5756 63.9954 37.7522 64.3403C37.9287 64.6852 38.1874 64.9931 38.5282 65.2641C38.869 65.5351 39.2652 65.7404 39.7169 65.88L39.2611 66.6191C38.7355 66.4384 38.2839 66.1777 37.9061 65.8369C37.5284 65.4961 37.2389 65.106 37.0377 64.6667C36.8365 64.2274 36.736 63.7696 36.736 63.2933V62.8991H37.4873V63.2933ZM43.3875 56.6417C43.9213 56.6417 44.3935 56.7998 44.8041 57.1159C45.2147 57.4321 45.537 57.8776 45.771 58.4524C46.0051 59.0272 46.1221 59.6965 46.1221 60.4602C46.1221 61.2239 46.0051 61.8932 45.771 62.468C45.537 63.0428 45.2147 63.4863 44.8041 63.7983C44.3935 64.1104 43.9213 64.2664 43.3875 64.2664C42.8538 64.2664 42.3795 64.1104 41.9648 63.7983C41.5501 63.4863 41.2258 63.0428 40.9917 62.468C40.7577 61.8932 40.6407 61.2239 40.6407 60.4602C40.6407 59.6965 40.7577 59.0272 40.9917 58.4524C41.2258 57.8776 41.5501 57.4321 41.9648 57.1159C42.3795 56.7998 42.8538 56.6417 43.3875 56.6417ZM43.3875 57.5039C43.0344 57.5039 42.7183 57.6271 42.4391 57.8735C42.1599 58.1198 41.9443 58.4647 41.7924 58.9081C41.6405 59.3516 41.5645 59.8689 41.5645 60.4602C41.5645 61.0432 41.6405 61.5585 41.7924 62.0061C41.9443 62.4536 42.1599 62.7985 42.4391 63.0408C42.7183 63.283 43.0344 63.4041 43.3875 63.4041C43.7407 63.4041 44.0568 63.283 44.336 63.0408C44.6152 62.7985 44.8308 62.4536 44.9827 62.0061C45.1346 61.5585 45.2106 61.0432 45.2106 60.4602C45.2106 59.8689 45.1346 59.3516 44.9827 58.9081C44.8308 58.4647 44.6173 58.1198 44.3422 57.8735C44.0671 57.6271 43.7489 57.5039 43.3875 57.5039ZM49.5218 66.7669H48.561V55.7918H49.5218V66.7669ZM48.9921 60.7804H45.8018V59.9798H48.9921V60.7804ZM54.7815 64.7221H53.833V61.4456H54.7815V64.7221ZM58.8833 64.7221H57.9102V61.4456H58.8833V64.7221ZM61.3715 65.338H51.3448V64.525H61.3715V65.338ZM56.3335 56.4815C57.1136 56.4815 57.8055 56.5986 58.4091 56.8326C59.0126 57.0666 59.4848 57.3972 59.8256 57.8242C60.1664 58.2512 60.3368 58.7439 60.3368 59.3023C60.3368 59.8607 60.1664 60.3514 59.8256 60.7743C59.4848 61.1972 59.0126 61.5257 58.4091 61.7597C57.8055 61.9937 57.1136 62.1108 56.3335 62.1108C55.5616 62.1108 54.8718 61.9937 54.2641 61.7597C53.6565 61.5257 53.1822 61.1972 52.8414 60.7743C52.5006 60.3514 52.3302 59.8607 52.3302 59.3023C52.3302 58.7439 52.5006 58.2512 52.8414 57.8242C53.1822 57.3972 53.6565 57.0666 54.2641 56.8326C54.8718 56.5986 55.5616 56.4815 56.3335 56.4815ZM56.3335 57.2822C55.7423 57.274 55.2147 57.3541 54.7507 57.5224C54.2867 57.6907 53.9233 57.9289 53.6606 58.2368C53.3978 58.5448 53.2664 58.8999 53.2664 59.3023C53.2664 59.7047 53.3978 60.0599 53.6606 60.3678C53.9233 60.6757 54.2867 60.9159 54.7507 61.0884C55.2147 61.2608 55.7423 61.3471 56.3335 61.3471C56.9248 61.3471 57.4524 61.2608 57.9163 61.0884C58.3803 60.9159 58.7437 60.6757 59.0065 60.3678C59.2692 60.0599 59.4006 59.7047 59.4006 59.3023C59.4006 58.8999 59.2692 58.5448 59.0065 58.2368C58.7437 57.9289 58.3803 57.6907 57.9163 57.5224C57.4524 57.3541 56.9248 57.274 56.3335 57.2822Z" fill="#FF8D8C"/>
<defs>
<linearGradient id="paint0_linear_3537_59053" x1="38.3782" y1="33.2238" x2="38.4624" y2="45.6008" gradientUnits="userSpaceOnUse">
<stop offset="0.0184697" stop-color="#FFC8C7"/>
<stop offset="1" stop-color="#FB413D"/>
</linearGradient>
</defs>
</svg>
