<svg width="80" height="80" viewBox="0 0 80 80" fill="none" xmlns="http://www.w3.org/2000/svg">
<circle cx="39.3876" cy="30.5575" r="18.434" fill="#BDDCFA"/>
<circle cx="32.113" cy="27.4942" r="1.30062" transform="rotate(14.4646 32.113 27.4942)" fill="#006AFF" stroke="#006AFF" stroke-width="0.153014"/>
<circle cx="47.718" cy="27.5164" r="1.30062" transform="rotate(14.4646 47.718 27.5164)" fill="#006AFF" stroke="#006AFF" stroke-width="0.153014"/>
<path d="M37.6362 34.8778C38.4328 36.1612 40.4774 37.958 42.283 34.8778" stroke="#006AFF" stroke-width="1.19489" stroke-linecap="round"/>
<path d="M15.9304 39.351C16.5355 37.0465 19.5364 35.6948 21.6581 35.1548L23.1047 37.0465C21.0143 37.2464 17.8591 38.6167 19.274 40.3541C21.2573 42.7897 32.4207 42.9227 37.0168 42.746C42.3656 42.5404 51.8953 41.9325 54.1737 41.357C55.7477 40.9595 60.1712 40.2773 60.1712 38.8883C60.1712 36.8759 56.9039 37.0749 55.4308 37.0749C55.5781 36.7803 56.012 36.2929 56.7566 35.1598C59.0389 35.4132 62.1576 35.863 62.9878 38.0777C63.8059 40.2603 62.2907 41.6077 60.1712 42.746C56.0043 44.9837 39.5338 46.0152 33.676 45.8374C27.8181 45.6595 14.6141 44.3645 15.9304 39.351Z" fill="url(#paint0_linear_3537_59149)"/>
<path d="M23.8974 62.5288H22.9977V51.8641H23.8974V62.5288ZM23.2376 56.9385H21.1503V56.1588H23.2376V56.9385ZM21.4262 61.977H20.5625V52.104H21.4262V61.977ZM15.8599 59.0859C16.7316 59.0859 17.4554 59.0659 18.0312 59.0259C18.6071 58.9859 19.1909 58.9059 19.7827 58.786L19.8667 59.5777C19.2589 59.6977 18.661 59.7797 18.0732 59.8237C17.4854 59.8676 16.7476 59.8896 15.8599 59.8896H15.1761V59.0859H15.8599ZM19.1709 53.9514H16.1118V59.4578H15.1761V53.1717H19.1709V53.9514ZM33.7345 59.5897H32.7987V51.8641H33.7345V59.5897ZM35.354 55.8349H33.4346V55.0431H35.354V55.8349ZM26.7286 56.9025C27.9202 56.9025 28.8619 56.8805 29.5537 56.8366C30.2455 56.7926 30.9353 56.6986 31.6231 56.5546L31.7431 57.3344C31.0153 57.4704 30.2875 57.5643 29.5597 57.6163C28.8319 57.6683 27.8882 57.6943 26.7286 57.6943H25.9008V56.9025H26.7286ZM30.6514 53.5796H26.8366V57.3464H25.9008V52.7878H30.6514V53.5796ZM34.2263 62.3009H27.0645V61.5091H34.2263V62.3009ZM27.9882 61.869H27.0645V58.81H27.9882V61.869ZM41.3402 54.4793H35.9898V53.7115H41.3402V54.4793ZM38.665 55.1991C39.1128 55.1991 39.5107 55.301 39.8586 55.505C40.2065 55.7089 40.4804 55.9948 40.6804 56.3627C40.8803 56.7306 40.9803 57.1505 40.9803 57.6223C40.9803 58.0942 40.8803 58.5141 40.6804 58.8819C40.4804 59.2498 40.2065 59.5397 39.8586 59.7517C39.5107 59.9636 39.1128 60.0696 38.665 60.0696C38.2251 60.0696 37.8312 59.9636 37.4833 59.7517C37.1354 59.5397 36.8635 59.2478 36.6676 58.8759C36.4716 58.5041 36.3737 58.0862 36.3737 57.6223C36.3737 57.1585 36.4716 56.7406 36.6676 56.3687C36.8635 55.9968 37.1354 55.7089 37.4833 55.505C37.8312 55.301 38.2251 55.1991 38.665 55.1991ZM38.665 55.9908C38.393 55.9908 38.1451 56.0628 37.9212 56.2068C37.6973 56.3507 37.5233 56.5447 37.3993 56.7886C37.2754 57.0325 37.2134 57.3104 37.2134 57.6223C37.2134 57.9342 37.2774 58.2141 37.4053 58.4621C37.5333 58.71 37.7073 58.9019 37.9272 59.0379C38.1471 59.1739 38.393 59.2418 38.665 59.2418C38.9449 59.2418 39.1968 59.1739 39.4207 59.0379C39.6447 58.9019 39.8206 58.71 39.9486 58.4621C40.0765 58.2141 40.1405 57.9342 40.1405 57.6223C40.1405 57.3104 40.0765 57.0325 39.9486 56.7886C39.8206 56.5447 39.6447 56.3507 39.4207 56.2068C39.1968 56.0628 38.9449 55.9908 38.665 55.9908ZM45.095 62.5288H44.1953V51.8641H45.095V62.5288ZM44.4952 57.1425H42.4558V56.3627H44.4952V57.1425ZM42.7797 62.001H41.892V52.128H42.7797V62.001ZM39.1448 54.1794H38.2091V52.188H39.1448V54.1794ZM49.9775 60.5614H49.0538V57.3704H49.9775V60.5614ZM53.9723 60.5614H53.0246V57.3704H53.9723V60.5614ZM56.3956 61.1612H46.6305V60.3695H56.3956V61.1612ZM51.4891 52.5359C52.2488 52.5359 52.9226 52.6498 53.5105 52.8778C54.0983 53.1057 54.5581 53.4276 54.89 53.8435C55.2219 54.2593 55.3879 54.7392 55.3879 55.283C55.3879 55.8269 55.2219 56.3047 54.89 56.7166C54.5581 57.1285 54.0983 57.4484 53.5105 57.6763C52.9226 57.9042 52.2488 58.0182 51.4891 58.0182C50.7373 58.0182 50.0655 57.9042 49.4737 57.6763C48.8819 57.4484 48.42 57.1285 48.0881 56.7166C47.7562 56.3047 47.5903 55.8269 47.5903 55.283C47.5903 54.7392 47.7562 54.2593 48.0881 53.8435C48.42 53.4276 48.8819 53.1057 49.4737 52.8778C50.0655 52.6498 50.7373 52.5359 51.4891 52.5359ZM51.4891 53.3156C50.9132 53.3076 50.3994 53.3856 49.9475 53.5496C49.4957 53.7135 49.1418 53.9454 48.8859 54.2453C48.6299 54.5453 48.502 54.8912 48.502 55.283C48.502 55.6749 48.6299 56.0208 48.8859 56.3207C49.1418 56.6206 49.4957 56.8546 49.9475 57.0225C50.3994 57.1905 50.9132 57.2744 51.4891 57.2744C52.0649 57.2744 52.5787 57.1905 53.0306 57.0225C53.4825 56.8546 53.8364 56.6206 54.0923 56.3207C54.3482 56.0208 54.4762 55.6749 54.4762 55.283C54.4762 54.8912 54.3482 54.5453 54.0923 54.2453C53.8364 53.9454 53.4825 53.7135 53.0306 53.5496C52.5787 53.3856 52.0649 53.3076 51.4891 53.3156ZM58.8908 59.1099H57.8831L57.7992 52.8718H58.9748L58.8908 59.1099ZM58.387 61.6291C58.251 61.6291 58.1231 61.5931 58.0031 61.5211C57.8831 61.4492 57.7892 61.3532 57.7212 61.2332C57.6532 61.1133 57.6192 60.9853 57.6192 60.8493C57.6192 60.7134 57.6532 60.5854 57.7212 60.4655C57.7892 60.3455 57.8831 60.2515 58.0031 60.1835C58.1231 60.1156 58.251 60.0816 58.387 60.0816C58.5229 60.0816 58.6509 60.1156 58.7709 60.1835C58.8908 60.2515 58.9848 60.3455 59.0528 60.4655C59.1208 60.5854 59.1547 60.7134 59.1547 60.8493C59.1547 60.9853 59.1208 61.1133 59.0528 61.2332C58.9848 61.3532 58.8908 61.4492 58.7709 61.5211C58.6509 61.5931 58.5229 61.6291 58.387 61.6291Z" fill="#5CA0FF"/>
<defs>
<linearGradient id="paint0_linear_3537_59149" x1="45.708" y1="36.3513" x2="46.2346" y2="47.9384" gradientUnits="userSpaceOnUse">
<stop stop-color="#BDDCFA"/>
<stop offset="1" stop-color="#00A8FF"/>
</linearGradient>
</defs>
</svg>
