<svg width="80" height="80" viewBox="0 0 80 80" fill="none" xmlns="http://www.w3.org/2000/svg">
<circle cx="40" cy="40" r="39.4444" fill="#F2F2F5" stroke="#F2F2F5" stroke-width="1.11112"/>
<circle cx="40.5471" cy="27.8825" r="18.218" fill="#DBE9C9"/>
<path d="M36.5179 34.1412C37.2192 34.7791 44.6319 35.8422 45.6478 34.1416" stroke="#111111" stroke-width="0.838426" stroke-linecap="round"/>
<circle cx="33.9041" cy="28.5097" r="1.25764" transform="rotate(14.4646 33.9041 28.5097)" fill="#111111"/>
<circle cx="48.1571" cy="28.5298" r="1.25764" transform="rotate(14.4646 48.1571 28.5298)" fill="#111111"/>
<path d="M35.7256 32.5673C36.1681 33.0563 36.8435 34.314 36.0051 35.4319" stroke="#111111" stroke-width="0.838426" stroke-linecap="round"/>
<path d="M46.3271 32.5673C45.8846 33.0563 45.2092 34.314 46.0477 35.4319" stroke="#111111" stroke-width="0.838426" stroke-linecap="round"/>
<path d="M30.1372 24.812C31.325 24.6956 33.9101 24.0015 34.7486 22.157" stroke="#111111" stroke-width="0.838426" stroke-linecap="round"/>
<path d="M50.958 24.8822C49.7702 24.7657 47.1851 24.0717 46.3467 22.2272" stroke="#111111" stroke-width="0.838426" stroke-linecap="round"/>
<path d="M17.8859 36.5729C18.4839 34.2954 21.4496 32.9596 23.5464 32.4259L24.9761 34.2954C22.9102 34.493 19.792 35.8472 21.1903 37.5643C23.1504 39.9714 34.1829 40.1027 38.7252 39.9281C44.0112 39.7249 53.4293 39.1241 55.681 38.5554C57.2366 38.1625 61.6083 37.4883 61.6083 36.1157C61.6083 34.1269 58.3792 34.3235 56.9234 34.3235C57.069 34.0323 57.4978 33.5506 58.2337 32.4309C60.4892 32.6812 63.5714 33.1258 64.3918 35.3146C65.2003 37.4716 63.7029 38.8032 61.6083 39.9281C57.4902 42.1396 41.2127 43.1591 35.4235 42.9833C29.6343 42.8075 16.585 41.5277 17.8859 36.5729Z" fill="url(#paint0_linear_3537_59056)"/>
<path d="M27.2003 63.8326H17.5497V63.0502H27.2003V63.8326ZM22.8374 63.3228H21.9008V60.4893H22.8374V63.3228ZM22.6714 56.648C22.6714 57.3357 22.4659 57.9739 22.0549 58.5627C21.6439 59.1516 21.1104 59.6436 20.4544 60.0388C19.7984 60.434 19.1186 60.7067 18.4152 60.8568L18.0239 60.1099C18.6325 59.9993 19.2352 59.774 19.832 59.4341C20.4287 59.0943 20.9187 58.6773 21.3021 58.1834C21.6854 57.6894 21.8771 57.1776 21.8771 56.648V55.996H22.6714V56.648ZM22.8374 56.648C22.8374 57.1855 23.031 57.6973 23.4183 58.1834C23.8056 58.6694 24.3016 59.0804 24.9062 59.4164C25.5109 59.7523 26.1214 59.9716 26.7379 60.0744L26.3586 60.8094C25.6472 60.6671 24.9616 60.4024 24.3016 60.0151C23.6416 59.6278 23.1041 59.1417 22.6892 58.5568C22.2742 57.9719 22.0668 57.3357 22.0668 56.648V55.996H22.8374V56.648ZM26.3704 56.3872H18.3441V55.6047H26.3704V56.3872ZM36.1159 55.9841H29.2632V55.2135H36.1159V55.9841ZM37.6927 59.861H28.0421V59.0903H37.6927V59.861ZM36.4241 55.996C36.4241 56.6046 36.4044 57.1598 36.3648 57.6617C36.3253 58.1636 36.2305 58.7386 36.0803 59.3867L35.1555 59.3274C35.2662 58.8769 35.3452 58.456 35.3927 58.0648C35.4401 57.6736 35.4697 57.3297 35.4816 57.0333C35.4934 56.737 35.4994 56.3912 35.4994 55.996V55.2135H36.4241V55.996ZM36.4715 65.0419H29.2277V61.3192H36.4715V65.0419ZM30.1524 64.2832H35.5468V62.0543H30.1524V64.2832ZM39.8741 61.8053C40.9254 61.8053 41.8007 61.7816 42.5002 61.7342C43.1997 61.6867 43.9051 61.5958 44.6165 61.4615L44.735 62.2321C43.992 62.3744 43.2629 62.4712 42.5476 62.5226C41.8323 62.5739 40.9412 62.5996 39.8741 62.5996H39.0679V61.8053H39.8741ZM43.9051 56.4346H40.0046V62.0898H39.0679V55.6522H43.9051V56.4346ZM47.284 65.2079H46.3474V54.6444H47.284V65.2079ZM46.7386 59.2563H43.2767V58.4857H46.7386V59.2563ZM52.3346 63.2398H51.4217V60.0862H52.3346V63.2398ZM56.2825 63.2398H55.3459V60.0862H56.2825V63.2398ZM58.6774 63.8326H49.0268V63.0502H58.6774V63.8326ZM53.8284 55.3083C54.5793 55.3083 55.2452 55.421 55.8261 55.6462C56.407 55.8715 56.8615 56.1896 57.1895 56.6006C57.5175 57.0116 57.6815 57.4858 57.6815 58.0233C57.6815 58.5608 57.5175 59.033 57.1895 59.4401C56.8615 59.8471 56.407 60.1633 55.8261 60.3885C55.2452 60.6138 54.5793 60.7264 53.8284 60.7264C53.0854 60.7264 52.4215 60.6138 51.8366 60.3885C51.2517 60.1633 50.7953 59.8471 50.4673 59.4401C50.1393 59.033 49.9753 58.5608 49.9753 58.0233C49.9753 57.4858 50.1393 57.0116 50.4673 56.6006C50.7953 56.1896 51.2517 55.8715 51.8366 55.6462C52.4215 55.421 53.0854 55.3083 53.8284 55.3083ZM53.8284 56.079C53.2593 56.0711 52.7515 56.1481 52.3049 56.3101C51.8584 56.4722 51.5086 56.7014 51.2557 56.9978C51.0028 57.2942 50.8763 57.636 50.8763 58.0233C50.8763 58.4106 51.0028 58.7524 51.2557 59.0488C51.5086 59.3452 51.8584 59.5764 52.3049 59.7424C52.7515 59.9084 53.2593 59.9914 53.8284 59.9914C54.3975 59.9914 54.9053 59.9084 55.3519 59.7424C55.7984 59.5764 56.1482 59.3452 56.4011 59.0488C56.654 58.7524 56.7805 58.4106 56.7805 58.0233C56.7805 57.636 56.654 57.2942 56.4011 56.9978C56.1482 56.7014 55.7984 56.4722 55.3519 56.3101C54.9053 56.1481 54.3975 56.0711 53.8284 56.079ZM61.1434 61.8053H60.1475L60.0645 55.6403H61.2264L61.1434 61.8053ZM60.6455 64.295C60.5111 64.295 60.3846 64.2594 60.2661 64.1883C60.1475 64.1172 60.0546 64.0223 59.9875 63.9038C59.9203 63.7852 59.8867 63.6588 59.8867 63.5244C59.8867 63.39 59.9203 63.2636 59.9875 63.145C60.0546 63.0264 60.1475 62.9336 60.2661 62.8664C60.3846 62.7992 60.5111 62.7656 60.6455 62.7656C60.7798 62.7656 60.9063 62.7992 61.0248 62.8664C61.1434 62.9336 61.2363 63.0264 61.3035 63.145C61.3706 63.2636 61.4042 63.39 61.4042 63.5244C61.4042 63.6588 61.3706 63.7852 61.3035 63.9038C61.2363 64.0223 61.1434 64.1172 61.0248 64.1883C60.9063 64.2594 60.7798 64.295 60.6455 64.295Z" fill="#81C230"/>
<defs>
<linearGradient id="paint0_linear_3537_59056" x1="47.3145" y1="33.6084" x2="47.835" y2="45.0597" gradientUnits="userSpaceOnUse">
<stop stop-color="#DBE9C9"/>
<stop offset="1" stop-color="#6BAE16"/>
</linearGradient>
</defs>
</svg>
