<svg width="80" height="80" viewBox="0 0 80 80" fill="none" xmlns="http://www.w3.org/2000/svg">
<circle cx="40" cy="40" r="39.4444" fill="#F2F2F5" stroke="#F2F2F5" stroke-width="1.11112"/>
<circle cx="39.8615" cy="33.009" r="18.218" fill="#B3A3D4"/>
<path d="M35.8309 39.3809C36.5322 38.743 41.943 38.2138 44.9608 39.3805" stroke="#111111" stroke-width="0.838426" stroke-linecap="round"/>
<circle cx="33.2186" cy="33.6358" r="1.25764" transform="rotate(14.4646 33.2186 33.6358)" fill="#111111"/>
<circle cx="47.471" cy="33.6559" r="1.25764" transform="rotate(14.4646 47.471 33.6559)" fill="#111111"/>
<path d="M35.0386 37.6937C35.4811 38.1828 36.1565 39.4404 35.318 40.5584" stroke="#111111" stroke-width="0.838426" stroke-linecap="round"/>
<path d="M45.6401 37.6934C45.1976 38.1824 44.5222 39.4401 45.3607 40.558" stroke="#111111" stroke-width="0.838426" stroke-linecap="round"/>
<path d="M31.5327 27.2831C32.7205 27.3995 35.3056 28.0936 36.1441 29.9381" stroke="#111111" stroke-width="0.838426" stroke-linecap="round"/>
<path d="M48.6362 27.2831C47.4485 27.3995 44.8633 28.0936 44.0249 29.9381" stroke="#111111" stroke-width="0.838426" stroke-linecap="round"/>
<path d="M16.6789 41.699C17.2768 39.4215 20.2425 38.0857 22.3394 37.552L23.769 39.4215C21.7032 39.6191 18.585 40.9733 19.9833 42.6904C21.9434 45.0975 32.9759 45.2288 37.5182 45.0542C42.8042 44.851 52.2223 44.2502 54.474 43.6815C56.0295 43.2886 60.4012 42.6144 60.4012 41.2417C60.4012 39.253 57.1722 39.4496 55.7163 39.4496C55.8619 39.1584 56.2908 38.6767 57.0266 37.557C59.2822 37.8073 62.3644 38.2519 63.1848 40.4407C63.9933 42.5977 62.4959 43.9293 60.4012 45.0542C56.2832 47.2657 40.0057 48.2852 34.2165 48.1094C28.4273 47.9336 15.378 46.6538 16.6789 41.699Z" fill="url(#paint0_linear_3537_59057)"/>
<path d="M24.3714 60.5319C24.893 60.5319 25.3534 60.6841 25.7526 60.9884C26.1517 61.2927 26.4659 61.7214 26.6951 62.2747C26.9243 62.828 27.0389 63.4721 27.0389 64.2072C27.0389 64.9423 26.9243 65.5864 26.6951 66.1397C26.4659 66.693 26.1498 67.1198 25.7467 67.4201C25.3436 67.7205 24.8851 67.8706 24.3714 67.8706C23.8576 67.8706 23.3992 67.7205 22.9961 67.4201C22.593 67.1198 22.2788 66.693 22.0536 66.1397C21.8283 65.5864 21.7157 64.9423 21.7157 64.2072C21.7157 63.4721 21.8283 62.828 22.0536 62.2747C22.2788 61.7214 22.593 61.2927 22.9961 60.9884C23.3992 60.6841 23.8576 60.5319 24.3714 60.5319ZM24.3714 61.3618C24.0236 61.3618 23.7154 61.4804 23.4466 61.7175C23.1779 61.9546 22.9685 62.2866 22.8183 62.7134C22.6681 63.1402 22.593 63.6381 22.593 64.2072C22.593 64.7684 22.6681 65.2643 22.8183 65.6951C22.9685 66.1259 23.1799 66.4578 23.4526 66.691C23.7253 66.9242 24.0315 67.0407 24.3714 67.0407C24.7192 67.0407 25.0274 66.9242 25.2961 66.691C25.5649 66.4578 25.7723 66.1259 25.9186 65.6951C26.0648 65.2643 26.1379 64.7684 26.1379 64.2072C26.1379 63.6381 26.0648 63.1402 25.9186 62.7134C25.7723 62.2866 25.5649 61.9546 25.2961 61.7175C25.0274 61.4804 24.7192 61.3618 24.3714 61.3618ZM29.7065 70.2537H28.7817V59.7139H29.7065V70.2537ZM31.473 64.7289H29.4931V63.9227H31.473V64.7289ZM35.8122 60.8283C35.8122 61.3895 35.6838 61.9131 35.4269 62.3992C35.17 62.8853 34.8144 63.3022 34.3599 63.65C33.9054 63.9978 33.3818 64.2586 32.789 64.4325L32.3148 63.6974C32.8443 63.5551 33.3146 63.3417 33.7256 63.0572C34.1366 62.7727 34.4567 62.4367 34.6859 62.0495C34.9151 61.6622 35.0297 61.2551 35.0297 60.8283V60.1762H35.8122V60.8283ZM35.9782 60.8283C35.9782 61.2314 36.0888 61.6068 36.3102 61.9546C36.5315 62.3024 36.8437 62.6047 37.2468 62.8616C37.6499 63.1185 38.1122 63.3101 38.6339 63.4366L38.1952 64.1835C37.5945 64.0175 37.0709 63.7764 36.6243 63.4603C36.1778 63.1441 35.83 62.7608 35.581 62.3103C35.3321 61.8598 35.2076 61.3658 35.2076 60.8283V60.1762H35.9782V60.8283ZM36.0375 69.9335H35.1127V65.5825H36.0375V69.9335ZM40.7324 70.2655H39.8195V59.7257H40.7324V70.2655ZM32.0184 65.3691C33.3146 65.377 34.5496 65.3592 35.7233 65.3157C36.897 65.2723 38.0055 65.1754 39.0488 65.0253L39.1081 65.701C38.0411 65.8907 36.9405 66.0152 35.8063 66.0745C34.6721 66.1338 33.4529 66.1634 32.1488 66.1634L32.0184 65.3691ZM46.3757 69.9335H45.4391V65.5825H46.3757V69.9335ZM51.2603 70.2655H50.3118V59.7257H51.2603V70.2655ZM42.487 65.2742C43.886 65.2742 45.1467 65.2525 46.269 65.209C47.3914 65.1655 48.4663 65.0727 49.4938 64.9304L49.5531 65.6299C48.4939 65.8038 47.3973 65.9204 46.2631 65.9796C45.1289 66.0389 43.9137 66.0686 42.6174 66.0686L42.487 65.2742ZM50.5608 67.6454H47.8814V66.934H50.5608V67.6454ZM45.9608 60.2474C46.4824 60.2474 46.9428 60.3343 47.342 60.5082C47.7411 60.6821 48.0533 60.9251 48.2786 61.2373C48.5038 61.5495 48.6165 61.9111 48.6165 62.3221C48.6165 62.7331 48.5058 63.0947 48.2845 63.4069C48.0632 63.7191 47.751 63.9602 47.3479 64.1301C46.9448 64.3001 46.4824 64.385 45.9608 64.385C45.4391 64.385 44.9767 64.3001 44.5736 64.1301C44.1705 63.9602 43.8564 63.7191 43.6311 63.4069C43.4058 63.0947 43.2932 62.7331 43.2932 62.3221C43.2932 61.9111 43.4058 61.5495 43.6311 61.2373C43.8564 60.9251 44.1705 60.6821 44.5736 60.5082C44.9767 60.3343 45.4391 60.2474 45.9608 60.2474ZM45.9608 60.9706C45.613 60.9706 45.3028 61.0279 45.0301 61.1425C44.7574 61.2571 44.546 61.4171 44.3958 61.6226C44.2456 61.8281 44.1705 62.0613 44.1705 62.3221C44.1705 62.583 44.2456 62.8161 44.3958 63.0216C44.546 63.2271 44.7574 63.3852 45.0301 63.4959C45.3028 63.6065 45.613 63.6618 45.9608 63.6618C46.3006 63.6618 46.6069 63.6065 46.8796 63.4959C47.1523 63.3852 47.3637 63.2271 47.5139 63.0216C47.664 62.8161 47.7391 62.583 47.7391 62.3221C47.7391 62.0613 47.664 61.8281 47.5139 61.6226C47.3637 61.4171 47.1523 61.2571 46.8796 61.1425C46.6069 61.0279 46.3006 60.9706 45.9608 60.9706ZM56.3346 68.3093H55.4217V65.1557H56.3346V68.3093ZM60.2825 68.3093H59.3459V65.1557H60.2825V68.3093ZM62.6774 68.9021H53.0268V68.1196H62.6774V68.9021ZM57.8284 60.3778C58.5793 60.3778 59.2452 60.4904 59.8261 60.7157C60.407 60.9409 60.8615 61.2591 61.1895 61.6701C61.5175 62.0811 61.6815 62.5553 61.6815 63.0928C61.6815 63.6302 61.5175 64.1025 61.1895 64.5095C60.8615 64.9166 60.407 65.2327 59.8261 65.458C59.2452 65.6833 58.5793 65.7959 57.8284 65.7959C57.0854 65.7959 56.4215 65.6833 55.8366 65.458C55.2517 65.2327 54.7953 64.9166 54.4673 64.5095C54.1393 64.1025 53.9753 63.6302 53.9753 63.0928C53.9753 62.5553 54.1393 62.0811 54.4673 61.6701C54.7953 61.2591 55.2517 60.9409 55.8366 60.7157C56.4215 60.4904 57.0854 60.3778 57.8284 60.3778ZM57.8284 61.1484C57.2593 61.1405 56.7515 61.2176 56.3049 61.3796C55.8584 61.5416 55.5086 61.7708 55.2557 62.0672C55.0028 62.3636 54.8763 62.7055 54.8763 63.0928C54.8763 63.4801 55.0028 63.8219 55.2557 64.1183C55.5086 64.4147 55.8584 64.6459 56.3049 64.8119C56.7515 64.9778 57.2593 65.0608 57.8284 65.0608C58.3975 65.0608 58.9053 64.9778 59.3519 64.8119C59.7984 64.6459 60.1482 64.4147 60.4011 64.1183C60.654 63.8219 60.7805 63.4801 60.7805 63.0928C60.7805 62.7055 60.654 62.3636 60.4011 62.0672C60.1482 61.7708 59.7984 61.5416 59.3519 61.3796C58.9053 61.2176 58.3975 61.1405 57.8284 61.1484ZM65.1434 66.8748H64.1475L64.0645 60.7098H65.2264L65.1434 66.8748ZM64.6455 69.3645C64.5111 69.3645 64.3846 69.3289 64.2661 69.2578C64.1475 69.1866 64.0546 69.0918 63.9875 68.9732C63.9203 68.8547 63.8867 68.7282 63.8867 68.5938C63.8867 68.4595 63.9203 68.333 63.9875 68.2145C64.0546 68.0959 64.1475 68.003 64.2661 67.9358C64.3846 67.8687 64.5111 67.8351 64.6455 67.8351C64.7798 67.8351 64.9063 67.8687 65.0248 67.9358C65.1434 68.003 65.2363 68.0959 65.3035 68.2145C65.3706 68.333 65.4042 68.4595 65.4042 68.5938C65.4042 68.7282 65.3706 68.8547 65.3035 68.9732C65.2363 69.0918 65.1434 69.1866 65.0248 69.2578C64.9063 69.3289 64.7798 69.3645 64.6455 69.3645Z" fill="#877AEB"/>
<defs>
<linearGradient id="paint0_linear_3537_59057" x1="46.1075" y1="38.7345" x2="46.628" y2="50.1858" gradientUnits="userSpaceOnUse">
<stop stop-color="#B3A3D4"/>
<stop offset="1" stop-color="#5125AD"/>
</linearGradient>
</defs>
</svg>
