<svg width="58" height="58" viewBox="0 0 58 58" fill="none" xmlns="http://www.w3.org/2000/svg">
<circle cx="29" cy="29" r="29" fill="#F1F3FF"/>
<path d="M24.7347 14.688C26.5847 11.9886 30.5685 11.9886 32.4185 14.688L34.5842 17.8479C35.1898 18.7316 36.0816 19.3795 37.1092 19.6824L40.7837 20.7656C43.9227 21.6909 45.1537 25.4797 43.1581 28.0734L40.8221 31.1095C40.1688 31.9586 39.8281 33.0069 39.8576 34.0778L39.9629 37.9072C40.0529 41.1785 36.83 43.5201 33.7466 42.4237L30.1371 41.1401C29.1278 40.7812 28.0255 40.7812 27.0161 41.1401L23.4067 42.4237C20.3233 43.5201 17.1003 41.1785 17.1903 37.9072L17.2956 34.0778C17.3251 33.0069 16.9845 31.9586 16.3312 31.1095L13.9951 28.0734C11.9995 25.4797 13.2306 21.6909 16.3695 20.7656L20.0441 19.6824C21.0717 19.3795 21.9634 18.7316 22.569 17.8479L24.7347 14.688Z" fill="#D9DDF5"/>
<path d="M22.917 29.6835L27.4057 33.4079L33.033 24.398" stroke="#030824" stroke-width="2.42907" stroke-linecap="round"/>
</svg>
