<svg width="44" height="44" viewBox="0 0 44 44" fill="none" xmlns="http://www.w3.org/2000/svg">
<circle cx="22" cy="22.0002" r="22" fill="#F1F3FF"/>
<path d="M10.1473 25.9619L15.0887 21.609C15.5309 21.2167 15.8765 20.8835 16.1256 20.6095C16.3747 20.3355 16.5646 20.0553 16.6954 19.7688C16.8324 19.4824 16.9009 19.1741 16.9009 18.8441C16.9009 18.4767 16.8137 18.1559 16.6393 17.8819C16.4712 17.6017 16.2377 17.39 15.9388 17.2468C15.6461 17.0973 15.3098 17.0226 14.9299 17.0226C14.5438 17.0226 14.2013 17.1004 13.9024 17.2561C13.6097 17.4118 13.3855 17.6391 13.2299 17.938C13.0742 18.2307 12.9963 18.5794 12.9963 18.9842H9.96983C9.96983 18.0874 10.1753 17.3028 10.5863 16.6302C11.0036 15.9577 11.5858 15.4408 12.3331 15.0796C13.0804 14.7184 13.9491 14.5379 14.9393 14.5379C15.9481 14.5379 16.8293 14.7091 17.5828 15.0516C18.3425 15.3879 18.931 15.8643 19.3482 16.4808C19.7655 17.0973 19.9741 17.8041 19.9741 18.6012C19.9741 19.143 19.8682 19.663 19.6565 20.1612C19.451 20.6531 19.0805 21.2042 18.5449 21.8145C18.0156 22.4248 17.2652 23.1534 16.2937 24.0003L14.575 25.5883V25.6724H20.1516V28.2505H10.1567L10.1473 25.9619ZM27.148 28.4373C26.1828 28.4373 25.3109 28.2598 24.5325 27.9049C23.7541 27.5499 23.1469 27.0579 22.711 26.429C22.2751 25.8 22.0478 25.0901 22.0291 24.2992H25.121C25.1397 24.6355 25.2424 24.9282 25.4292 25.1773C25.6161 25.4264 25.8589 25.6225 26.1578 25.7658C26.4568 25.9028 26.7868 25.9713 27.148 25.9713C27.5715 25.9713 27.9482 25.8779 28.2783 25.691C28.6083 25.5042 28.8667 25.2458 29.0536 24.9157C29.2404 24.5857 29.3338 24.2058 29.3338 23.7761C29.3338 23.334 29.2373 22.9448 29.0442 22.6085C28.8574 22.2722 28.5959 22.0107 28.2596 21.8239C27.9295 21.637 27.5497 21.5436 27.12 21.5436C26.6405 21.5374 26.2388 21.6277 25.915 21.8145C25.5912 21.9951 25.3358 22.2722 25.149 22.6459H22.2813L22.9539 14.7247H31.6037V17.3028H25.5694L25.2518 20.5348H25.3358C25.5849 20.1549 25.9586 19.8467 26.4568 19.61C26.9612 19.3734 27.5216 19.2551 28.1381 19.2551C28.9477 19.2551 29.6794 19.445 30.3333 19.8249C30.9872 20.1985 31.4978 20.7216 31.8652 21.3942C32.2326 22.0667 32.4101 22.8296 32.3977 23.6827C32.4101 24.5981 32.1953 25.417 31.7531 26.1394C31.311 26.8618 30.6914 27.4254 29.8943 27.8301C29.0972 28.2349 28.1817 28.4373 27.148 28.4373Z" fill="#111111"/>
</svg>
