<svg width="91" height="91" viewBox="0 0 91 91" fill="none" xmlns="http://www.w3.org/2000/svg">
<g filter="url(#filter0_d_3537_58983)">
<circle cx="45.1865" cy="42.187" r="14.8703" transform="rotate(9.13549 45.1865 42.187)" fill="#70CCFF"/>
<circle cx="45.1865" cy="42.187" r="15.8115" transform="rotate(9.13549 45.1865 42.187)" stroke="white" stroke-width="1.88235"/>
</g>
<path d="M38.487 49.1835C36.7049 48.2925 37.4097 45.2515 38.487 45.2515C39.5643 47.5676 41.0186 47.8908 42.1498 48.3217C41.9702 48.7526 40.2107 50.0454 38.487 49.1835Z" fill="#BDDCFA"/>
<path d="M51.8347 49.1835C53.6169 48.2925 52.912 45.2515 51.8348 45.2515C50.7575 47.5676 49.3031 47.8908 48.172 48.3217C48.3516 48.7526 50.1111 50.0454 51.8347 49.1835Z" fill="#BDDCFA"/>
<path d="M35.2291 44.2327C36.2819 46.4153 38.659 45.7917 38.659 45.7917C38.659 45.7917 37.5989 42.1747 39.8102 40.4757C38.7153 38.7684 37.1871 37.216 35.4162 39.992C34.3827 41.6123 34.8641 43.4759 35.2291 44.2327Z" fill="url(#paint0_linear_3537_58983)"/>
<path d="M55.1449 44.553C54.0921 46.7356 51.715 46.112 51.715 46.112C51.715 46.112 52.7752 42.495 50.5638 40.796C51.6587 39.0888 53.1869 37.5363 54.9578 40.3124C55.9914 41.9326 55.5099 43.7962 55.1449 44.553Z" fill="url(#paint1_linear_3537_58983)"/>
<path d="M54.0356 36.2481C55.0274 39.8433 51.701 41.0295 51.3473 41.1088C50.7977 41.2319 50.152 40.6019 48.159 39.4708C47.7981 37.781 45.1427 33.2226 51.2831 34.0844C52.6371 34.2744 53.8101 35.431 54.0356 36.2481Z" fill="url(#paint2_linear_3537_58983)"/>
<path d="M36.7594 36.3563C35.7676 39.9515 39.0939 41.1376 39.4477 41.2169C39.9972 41.3401 40.6429 40.7101 42.6359 39.579C42.9968 37.8892 45.6523 33.3308 39.5118 34.1926C38.1578 34.3826 36.9848 35.5392 36.7594 36.3563Z" fill="url(#paint3_linear_3537_58983)"/>
<path fill-rule="evenodd" clip-rule="evenodd" d="M42.3553 38.9526C40.7886 39.2978 37.7525 40.8057 38.1415 44.0758C38.4228 46.4403 40.1388 47.7106 42.0584 48.3086C41.9166 49.4927 41.8631 51.4566 43.0856 51.7721C44.7554 52.203 44.9709 51.1257 44.9709 50.8025C44.9709 50.4793 45.0247 50.4255 45.1325 50.4255C45.2142 50.4255 45.2339 50.5494 45.2622 50.7267C45.2712 50.7832 45.281 50.8452 45.2941 50.9103C45.3479 51.1796 45.5634 51.8259 46.2636 51.8798C46.9638 51.9337 48.2566 51.5659 48.2566 50.1562C48.2566 49.1032 48.2462 48.7419 48.1901 48.3511C50.4503 47.7634 52.6313 46.3754 52.1533 42.9312C51.7752 40.2062 49.3782 39.2615 48.5679 39.2251C48.0817 39.3523 46.6987 39.5849 45.0564 39.4977C43.4141 39.4104 42.5714 39.098 42.3553 38.9526Z" fill="white"/>
<path d="M42.2715 33.4174C39.5201 35.8284 42.093 38.7114 42.3628 38.9529C43.9878 40.4072 46.3996 40.0261 48.3417 39.276C48.5451 39.0473 49.1217 38.0288 49.285 37.2215C49.8049 34.6497 48.7093 33.2712 47.7599 32.9835C47.0434 32.6451 43.7213 32.1471 42.2715 33.4174Z" fill="url(#paint4_linear_3537_58983)"/>
<path d="M43.8593 44.505C44.2471 44.6343 44.8777 44.882 45.1471 44.505C45.3625 44.9359 46.2293 44.505 46.4324 44.505C46.6131 44.5051 46.3321 45.7978 45.1471 45.7978C43.9706 45.7978 43.6978 44.4511 43.8593 44.505Z" fill="#FF8D8C"/>
<path d="M44.5835 44.0914C44.4928 43.6118 44.9073 43.5538 45.1874 43.6118C45.6927 43.496 45.7558 43.7783 45.7558 44.0169C45.7558 44.422 45.4676 44.5544 45.2782 44.5544C45.0887 44.5544 44.6743 44.571 44.5835 44.0914Z" fill="#111111"/>
<ellipse cx="42.2186" cy="42.9387" rx="0.807959" ry="0.861823" fill="#111111"/>
<ellipse cx="47.6048" cy="42.9387" rx="0.807959" ry="0.861823" fill="#111111"/>
<defs>
<filter id="filter0_d_3537_58983" x="0.195858" y="0.961296" width="89.9813" height="89.9808" filterUnits="userSpaceOnUse" color-interpolation-filters="sRGB">
<feFlood flood-opacity="0" result="BackgroundImageFix"/>
<feColorMatrix in="SourceAlpha" type="matrix" values="0 0 0 0 0 0 0 0 0 0 0 0 0 0 0 0 0 0 127 0" result="hardAlpha"/>
<feOffset dy="3.76471"/>
<feGaussianBlur stdDeviation="14.1176"/>
<feComposite in2="hardAlpha" operator="out"/>
<feColorMatrix type="matrix" values="0 0 0 0 0 0 0 0 0 0 0 0 0 0 0 0 0 0 0.08 0"/>
<feBlend mode="normal" in2="BackgroundImageFix" result="effect1_dropShadow_3537_58983"/>
<feBlend mode="normal" in="SourceGraphic" in2="effect1_dropShadow_3537_58983" result="shape"/>
</filter>
<linearGradient id="paint0_linear_3537_58983" x1="37.1381" y1="40.299" x2="43.3863" y2="44.7697" gradientUnits="userSpaceOnUse">
<stop stop-color="#97CBFF"/>
<stop offset="1" stop-color="#4AA5FF"/>
</linearGradient>
<linearGradient id="paint1_linear_3537_58983" x1="53.2359" y1="40.6193" x2="46.9877" y2="45.09" gradientUnits="userSpaceOnUse">
<stop stop-color="#97CBFF"/>
<stop offset="1" stop-color="#4AA5FF"/>
</linearGradient>
<linearGradient id="paint2_linear_3537_58983" x1="52.1915" y1="34.3455" x2="48.9907" y2="40.0281" gradientUnits="userSpaceOnUse">
<stop stop-color="#5CA0FF"/>
<stop offset="1" stop-color="#257EFB"/>
</linearGradient>
<linearGradient id="paint3_linear_3537_58983" x1="38.6034" y1="34.4536" x2="41.8042" y2="40.1363" gradientUnits="userSpaceOnUse">
<stop stop-color="#5CA0FF"/>
<stop offset="1" stop-color="#257EFB"/>
</linearGradient>
<linearGradient id="paint4_linear_3537_58983" x1="45.2176" y1="32.5969" x2="44.2481" y2="48.81" gradientUnits="userSpaceOnUse">
<stop stop-color="#006AFF"/>
<stop offset="1" stop-color="#004099"/>
</linearGradient>
</defs>
</svg>
