<svg width="91" height="91" viewBox="0 0 91 91" fill="none" xmlns="http://www.w3.org/2000/svg">
<g filter="url(#filter0_d_3537_58984)">
<circle cx="45.1865" cy="42.187" r="14.8703" transform="rotate(9.13549 45.1865 42.187)" fill="#70CCFF"/>
<circle cx="45.1865" cy="42.187" r="15.8115" transform="rotate(9.13549 45.1865 42.187)" stroke="white" stroke-width="1.88235"/>
</g>
<path fill-rule="evenodd" clip-rule="evenodd" d="M36.486 38.6596C35.43 36.6279 36.9048 33.0498 37.8509 33C38.7718 33.1535 40.565 33.878 41.7526 34.617C43.0008 34.3568 44.2079 34.3347 45.0702 34.4383C45.8005 34.4383 46.5108 34.5181 47.1887 34.6764C48.3737 33.9172 50.239 33.1576 51.1845 33C52.1258 33.0495 53.5365 36.9438 52.5093 38.993C52.6145 39.221 52.7114 39.4573 52.7995 39.702C53.934 42.8536 51.7452 45.4622 50.175 46.2142C49.101 46.7285 48.3 47.0395 47.4926 47.2097C47.5837 47.7178 47.6067 47.9692 47.6106 48.9683C48.0148 48.8053 49.2682 47.6731 49.2682 47.6731C49.2682 47.6731 50.2148 47.3049 50.0521 48.2299C49.6334 49.0419 48.4616 49.4959 47.586 49.7005C47.3994 50.8728 46.2269 51.1869 45.5671 51.1362C44.8489 51.0809 44.6279 50.418 44.5727 50.1417C44.5593 50.075 44.5492 50.0114 44.54 49.9535C44.511 49.7716 44.4907 49.6445 44.4069 49.6445C44.2964 49.6445 44.2412 49.6998 44.2412 50.0312C44.2412 50.3627 44.0202 51.4677 42.3075 51.0257C41.0166 50.6925 41.1651 48.3239 41.3252 47.0962C40.3727 46.9197 39.4483 46.5518 38.2389 45.6898C36.8388 44.6918 35.1634 42.5762 36.4744 38.6935C36.4783 38.6822 36.4821 38.6709 36.486 38.6596Z" fill="url(#paint0_linear_3537_58984)"/>
<path d="M43.4869 49.2142C42.9643 49.8566 40.9343 48.4205 41.0752 47.1092C41.0869 47.0005 43.3256 47.5864 44.4259 47.7076C44.4259 47.7076 44.0095 48.5718 43.4869 49.2142Z" fill="#0162EB"/>
<path d="M45.3598 49.2142C45.8824 49.8566 47.9124 48.4205 47.7714 47.1092C47.7598 47.0005 45.5211 47.5864 44.4208 47.7076C44.4208 47.7076 44.8372 48.5718 45.3598 49.2142Z" fill="#0162EB"/>
<path d="M38.2051 33.9465C37.5619 33.9798 36.5548 36.4015 37.3165 37.733C37.892 36.8342 39.8554 35.5832 41.0403 35.1532C40.2617 34.6206 38.8822 34.0575 38.2051 33.9465Z" fill="#F9F4CA"/>
<path d="M51.0273 33.9465C51.6705 33.9798 52.6777 36.4015 51.9159 37.733C51.3405 36.8342 49.377 35.5832 48.1922 35.1532C48.9708 34.6206 50.3503 34.0575 51.0273 33.9465Z" fill="#F9F4CA"/>
<path d="M43.2242 40.1435C43.2242 41.6404 42.7221 42.7278 41.2072 42.8538C39.6336 42.7278 39.1827 41.4609 39.2554 40.1435C39.3265 38.855 40.2845 37.6853 41.3985 37.6853C42.5124 37.6853 43.2242 38.6466 43.2242 40.1435Z" fill="white"/>
<path d="M43.292 40.1546C43.292 41.6515 43.1052 42.6128 41.5902 42.7389C40.3926 42.6758 40.0678 41.535 40.1405 40.2176C40.2116 38.9291 40.8316 37.5473 41.7793 37.6964C42.8933 37.6964 43.292 38.6577 43.292 40.1546Z" fill="#111111"/>
<path d="M50.1588 40.0168C50.1588 41.5137 49.6567 42.6011 48.1418 42.7271C46.5682 42.6011 46.1173 41.3342 46.19 40.0168C46.2611 38.7283 47.2191 37.5586 48.3331 37.5586C49.447 37.5586 50.1588 38.5199 50.1588 40.0168Z" fill="white"/>
<path d="M50.2246 40.0279C50.2246 41.5248 50.0378 42.4861 48.5228 42.6122C47.3253 42.5491 47.0004 41.4083 47.0731 40.0909C47.1442 38.8024 47.7642 37.4206 48.7119 37.5697C49.8259 37.5697 50.2246 38.531 50.2246 40.0279Z" fill="#111111"/>
<path d="M43.9854 42.8436L44.6375 42.6768L45.216 42.8871" stroke="#111111" stroke-width="0.420717" stroke-linecap="round"/>
<defs>
<filter id="filter0_d_3537_58984" x="0.195858" y="0.961296" width="89.9813" height="89.9808" filterUnits="userSpaceOnUse" color-interpolation-filters="sRGB">
<feFlood flood-opacity="0" result="BackgroundImageFix"/>
<feColorMatrix in="SourceAlpha" type="matrix" values="0 0 0 0 0 0 0 0 0 0 0 0 0 0 0 0 0 0 127 0" result="hardAlpha"/>
<feOffset dy="3.76471"/>
<feGaussianBlur stdDeviation="14.1176"/>
<feComposite in2="hardAlpha" operator="out"/>
<feColorMatrix type="matrix" values="0 0 0 0 0 0 0 0 0 0 0 0 0 0 0 0 0 0 0.08 0"/>
<feBlend mode="normal" in2="BackgroundImageFix" result="effect1_dropShadow_3537_58984"/>
<feBlend mode="normal" in="SourceGraphic" in2="effect1_dropShadow_3537_58984" result="shape"/>
</filter>
<linearGradient id="paint0_linear_3537_58984" x1="44.5567" y1="33" x2="44.5567" y2="51.1413" gradientUnits="userSpaceOnUse">
<stop stop-color="#F7D00F"/>
<stop offset="1" stop-color="#F3B90C"/>
</linearGradient>
</defs>
</svg>
