<svg width="44" height="44" viewBox="0 0 44 44" fill="none" xmlns="http://www.w3.org/2000/svg">
<circle cx="21.7842" cy="21.7353" r="21.7101" transform="rotate(9.13549 21.7842 21.7353)" fill="#022644"/>
<path d="M18.3833 9.27055C20.0207 6.88141 23.5466 6.88141 25.184 9.27055L27.1007 12.0673C27.6367 12.8494 28.426 13.4228 29.3354 13.6909L32.5876 14.6496C35.3658 15.4686 36.4553 18.8219 34.6891 21.1174L32.6215 23.8045C32.0433 24.556 31.7419 25.4838 31.7679 26.4316L31.8612 29.8209C31.9408 32.7161 29.0883 34.7886 26.3593 33.8182L23.1648 32.6822C22.2714 32.3645 21.2959 32.3645 20.4025 32.6822L17.208 33.8182C14.479 34.7886 11.6265 32.7161 11.7061 29.8209L11.7994 26.4316C11.8254 25.4838 11.524 24.556 10.9458 23.8045L8.8782 21.1174C7.11198 18.8219 8.20153 15.4686 10.9797 14.6496L14.2319 13.6909C15.1413 13.4228 15.9306 12.8494 16.4666 12.0673L18.3833 9.27055Z" fill="#D9DDF5"/>
<path d="M20.5194 24.4426C20.525 23.7696 20.5862 23.2274 20.703 22.8158C20.8198 22.3987 20.9866 22.065 21.2035 21.8147C21.4204 21.5644 21.7152 21.3253 22.0878 21.0973C22.5049 20.8414 22.8219 20.5745 23.0389 20.2964C23.2558 20.0127 23.3642 19.6957 23.3642 19.3453C23.3642 19.0728 23.3003 18.8337 23.1723 18.6279C23.05 18.4165 22.8748 18.2552 22.6468 18.144C22.4243 18.0328 22.1768 17.9772 21.9043 17.9772C21.6429 17.9772 21.3954 18.0356 21.1618 18.1524C20.9338 18.2636 20.7475 18.4332 20.6029 18.6612C20.3458 19.0666 19.9888 19.4788 19.5088 19.4788H19.2185C18.5499 19.4788 17.9829 18.9144 18.1972 18.2811C18.2855 18.0201 18.4033 17.7798 18.5506 17.56C18.901 17.0372 19.3654 16.6479 19.9438 16.3921C20.5278 16.1307 21.184 16 21.9126 16C22.6968 16 23.3892 16.1307 23.9899 16.3921C24.5906 16.6479 25.0577 17.0233 25.3914 17.5183C25.7307 18.0078 25.9003 18.5889 25.9003 19.2619C25.9003 19.9237 25.7418 20.4855 25.4248 20.9471C25.1133 21.4087 24.6656 21.8175 24.0817 22.1734C23.7591 22.3625 23.5005 22.5572 23.3058 22.7574C23.1167 22.9576 22.9721 23.1912 22.872 23.4582C22.7719 23.7251 22.7218 24.0533 22.7218 24.4426C22.7218 24.5486 22.6359 24.6345 22.53 24.6345H20.7113C20.6053 24.6345 20.5194 24.5486 20.5194 24.4426ZM21.6707 28.3969C21.4204 28.3969 21.1868 28.333 20.9699 28.205C20.753 28.0716 20.5834 27.8991 20.461 27.6878C20.3387 27.4709 20.2775 27.2373 20.2775 26.987C20.2775 26.7423 20.3387 26.5143 20.461 26.303C20.5834 26.0861 20.753 25.9164 20.9699 25.7941C21.1868 25.6717 21.4204 25.6105 21.6707 25.6105C21.9154 25.6105 22.1434 25.6717 22.3548 25.7941C22.5717 25.9164 22.7441 26.0861 22.872 26.303C23.0055 26.5143 23.0722 26.7423 23.0722 26.987C23.0722 27.2373 23.0055 27.4709 22.872 27.6878C22.7441 27.8991 22.5717 28.0716 22.3548 28.205C22.1434 28.333 21.9154 28.3969 21.6707 28.3969Z" fill="#022644"/>
</svg>
