<svg width="26" height="27" viewBox="0 0 26 27" fill="none" xmlns="http://www.w3.org/2000/svg">
<path d="M3.22266 18.8151V11.5181C3.22266 10.4661 3.67805 9.46556 4.47137 8.7746L9.24449 4.61737C9.90688 4.04045 10.7556 3.72266 11.634 3.72266H14.2569C15.2012 3.72266 16.1085 4.08978 16.787 4.74645L21.6701 9.47198C22.3783 10.1574 22.7782 11.1008 22.7782 12.0864V18.8151C22.7782 19.7801 22.3949 20.7055 21.7126 21.3878L20.8878 22.2126C20.2055 22.8949 19.2801 23.2782 18.3151 23.2782H7.68574C6.72082 23.2782 5.79541 22.8949 5.11311 22.2126L4.28827 21.3878C3.60597 20.7055 3.22266 19.7801 3.22266 18.8151Z" stroke="#D6E9FB" stroke-width="2.44444" stroke-linecap="round"/>
</svg>
