<svg width="26" height="26" viewBox="0 0 26 26" fill="none" xmlns="http://www.w3.org/2000/svg">
<mask id="path-1-inside-1_4226_4194" fill="white">
<path d="M4 19.7631C4 17.4102 5.90744 15.5027 8.26039 15.5027H17.6332C19.9862 15.5027 21.8936 17.4102 21.8936 19.7631V22.3194C21.8936 23.2605 21.1306 24.0235 20.1895 24.0235H5.70415C4.76297 24.0235 4 23.2605 4 22.3194V19.7631Z"/>
</mask>
<path d="M4 19.7631C4 17.4102 5.90744 15.5027 8.26039 15.5027H17.6332C19.9862 15.5027 21.8936 17.4102 21.8936 19.7631V22.3194C21.8936 23.2605 21.1306 24.0235 20.1895 24.0235H5.70415C4.76297 24.0235 4 23.2605 4 22.3194V19.7631Z" fill="white" stroke="#BDDCFA" stroke-width="4" mask="url(#path-1-inside-1_4226_4194)"/>
<circle cx="12.9472" cy="8.68648" r="3.68642" fill="white" stroke="#BDDCFA" stroke-width="2"/>
</svg>
