<svg width="44" height="44" viewBox="0 0 44 44" fill="none" xmlns="http://www.w3.org/2000/svg">
<circle cx="22" cy="21.9995" r="21.5217" fill="white" stroke="#373D5F" stroke-width="0.956522"/>
<path d="M12.0223 16.0177C14.5727 11.561 19.7983 11.9248 21.9771 13.6713C22.007 13.6953 22.0487 13.6955 22.0792 13.6724C23.4946 12.6009 25.6477 12.1564 27.8417 12.6119C30.618 13.1883 33.3418 16.0177 33.0275 20.943C32.7133 25.8684 26.5845 32.9419 21.7654 32.7323C16.9462 32.5227 8.32373 22.4809 12.0223 16.0177Z" stroke="#373D5F" stroke-width="0.956522" stroke-linecap="round"/>
<path d="M10.5992 28.7227C10.8977 27.5858 12.3781 26.919 13.4248 26.6526L14.1384 27.5858C13.1072 27.6844 11.5507 28.3604 12.2486 29.2176C13.2271 30.4191 18.7343 30.4847 21.0017 30.3975C23.6404 30.2961 28.3417 29.9962 29.4657 29.7123C30.2422 29.5162 32.4245 29.1797 32.4245 28.4944C32.4245 27.5017 30.8126 27.5998 30.0859 27.5998C30.1586 27.4545 30.3727 27.214 30.74 26.6551C31.8659 26.78 33.4045 27.002 33.814 28.0946C34.2176 29.1713 33.4701 29.836 32.4245 30.3975C30.3689 31.5015 22.2434 32.0104 19.3536 31.9226C16.4637 31.8349 9.94979 31.196 10.5992 28.7227Z" fill="#373D5F"/>
<circle cx="19.0093" cy="20.3791" r="0.58731" transform="rotate(14.4646 19.0093 20.3791)" fill="#373D5F" stroke="#373D5F" stroke-width="0.0690952"/>
<circle cx="26.0562" cy="20.3886" r="0.58731" transform="rotate(14.4646 26.0562 20.3886)" fill="#373D5F" stroke="#373D5F" stroke-width="0.0690952"/>
<path d="M21.5049 23.7124C21.8646 24.2919 22.7879 25.1033 23.6032 23.7124" stroke="#373D5F" stroke-width="0.539566" stroke-linecap="round"/>
</svg>
