<svg width="44" height="44" viewBox="0 0 44 44" fill="none" xmlns="http://www.w3.org/2000/svg">
<circle cx="22" cy="21.9995" r="21.5217" fill="white" stroke="#373D5F" stroke-width="0.956522"/>
<path d="M19.1294 16.8344V18.5562C19.1294 18.8731 18.8725 19.1301 18.5555 19.1301H16.8337C16.5167 19.1301 16.2598 18.8731 16.2598 18.5562V16.8344C16.2598 16.5174 16.5167 16.2605 16.8337 16.2605H18.5555C18.8725 16.2605 19.1294 16.5174 19.1294 16.8344Z" stroke="#373D5F" stroke-width="0.956522" stroke-linecap="round" stroke-linejoin="round"/>
<path d="M16.2598 21.9998H19.1294" stroke="#373D5F" stroke-width="0.956522" stroke-linecap="round" stroke-linejoin="round"/>
<path d="M24.8701 21.9998V24.8693" stroke="#373D5F" stroke-width="0.956522" stroke-linecap="round" stroke-linejoin="round"/>
<path d="M22 27.739H24.8697" stroke="#373D5F" stroke-width="0.956522" stroke-linecap="round" stroke-linejoin="round"/>
<path d="M22 22.0103L22.0095 21.9998" stroke="#373D5F" stroke-width="0.956522" stroke-linecap="round" stroke-linejoin="round"/>
<path d="M27.7388 22.0103L27.7483 21.9998" stroke="#373D5F" stroke-width="0.956522" stroke-linecap="round" stroke-linejoin="round"/>
<path d="M22 24.8794L22.0095 24.8689" stroke="#373D5F" stroke-width="0.956522" stroke-linecap="round" stroke-linejoin="round"/>
<path d="M27.7388 24.8794L27.7483 24.8689" stroke="#373D5F" stroke-width="0.956522" stroke-linecap="round" stroke-linejoin="round"/>
<path d="M27.7388 27.7496L27.7483 27.739" stroke="#373D5F" stroke-width="0.956522" stroke-linecap="round" stroke-linejoin="round"/>
<path d="M22 19.1407L22.0095 19.1301" stroke="#373D5F" stroke-width="0.956522" stroke-linecap="round" stroke-linejoin="round"/>
<path d="M22 16.271L22.0095 16.2605" stroke="#373D5F" stroke-width="0.956522" stroke-linecap="round" stroke-linejoin="round"/>
<path d="M19.1294 25.4428V27.1646C19.1294 27.4816 18.8725 27.7385 18.5555 27.7385H16.8337C16.5167 27.7385 16.2598 27.4816 16.2598 27.1646V25.4428C16.2598 25.1258 16.5167 24.8689 16.8337 24.8689H18.5555C18.8725 24.8689 19.1294 25.1258 19.1294 25.4428Z" stroke="#373D5F" stroke-width="0.956522" stroke-linecap="round" stroke-linejoin="round"/>
<path d="M27.7398 16.8344V18.5562C27.7398 18.8731 27.4829 19.1301 27.1659 19.1301H25.4441C25.127 19.1301 24.8701 18.8731 24.8701 18.5562V16.8344C24.8701 16.5174 25.127 16.2605 25.4441 16.2605H27.1659C27.4829 16.2605 27.7398 16.5174 27.7398 16.8344Z" stroke="#373D5F" stroke-width="0.956522" stroke-linecap="round" stroke-linejoin="round"/>
<path d="M27.7388 13.3909H30.6085V16.2604" stroke="#373D5F" stroke-width="0.956522" stroke-linecap="round" stroke-linejoin="round"/>
<path d="M27.7388 30.6086H30.6085V27.739" stroke="#373D5F" stroke-width="0.956522" stroke-linecap="round" stroke-linejoin="round"/>
<path d="M16.2608 13.3909H13.3911V16.2604" stroke="#373D5F" stroke-width="0.956522" stroke-linecap="round" stroke-linejoin="round"/>
<path d="M16.2608 30.6086H13.3911V27.739" stroke="#373D5F" stroke-width="0.956522" stroke-linecap="round" stroke-linejoin="round"/>
</svg>
