<svg width="32" height="32" viewBox="0 0 32 32" fill="none" xmlns="http://www.w3.org/2000/svg">
<path d="M7.77531 12.4326C7.77531 8.28633 13.1012 5.9231 16.4546 5.9231C19.808 5.9231 25.1339 8.28633 25.1339 12.4326V17.6192C25.1339 18.5516 25.7062 19.4011 26.2364 20.168C26.6483 20.7636 26.9979 21.6461 26.9092 22.8872C26.8566 23.6237 26.1819 24.2838 25.6798 24.6774C25.3368 24.9463 24.9043 25.057 24.4684 25.057H8.41316C7.99484 25.057 7.57908 24.9557 7.24846 24.6994C6.72508 24.2937 6.00001 23.5724 6 22.6899C5.99999 21.5364 6.4216 20.6639 6.85391 20.0725C7.3396 19.4081 7.77531 18.6464 7.77531 17.8233V12.4326Z" stroke="#111111" stroke-width="1.9306"/>
<path d="M13.4951 24.8596C13.4951 24.8596 13.4951 28.6075 16.454 28.6075C20.0046 28.6075 19.8073 24.8596 19.8073 24.8596" stroke="#111111" stroke-width="1.9306"/>
<circle cx="23.5" cy="8.5" r="3.5" fill="#FF4891"/>
</svg>
