<svg width="45" height="44" viewBox="0 0 45 44" fill="none" xmlns="http://www.w3.org/2000/svg">
<path fill-rule="evenodd" clip-rule="evenodd" d="M22.5508 44.0002C10.4005 44.0002 0.550781 34.1505 0.550781 22.0002C0.550781 9.84998 10.4005 0.000244141 22.5508 0.000244141C34.701 0.000244141 44.5508 9.84998 44.5508 22.0002C44.5508 34.1505 34.701 44.0002 22.5508 44.0002ZM26.9508 17.6002C26.9508 20.0312 24.9818 22.0002 22.5508 22.0002C20.1198 22.0002 18.1508 20.0312 18.1508 17.6002C18.1508 15.1692 20.1198 13.2002 22.5508 13.2002C24.9818 13.2002 26.9508 15.1692 26.9508 17.6002ZM13.7508 28.6002C13.7508 25.6742 19.6138 24.2002 22.5508 24.2002C25.4878 24.2002 31.3508 25.6742 31.3508 28.6002V29.7002C31.3508 30.3052 30.8558 30.8002 30.2508 30.8002H14.8508C14.2458 30.8002 13.7508 30.3052 13.7508 29.7002V28.6002Z" fill="#F2F2F2"/>
<path d="M22.5508 22.0002C24.9818 22.0002 26.9508 20.0312 26.9508 17.6002C26.9508 15.1692 24.9818 13.2002 22.5508 13.2002C20.1198 13.2002 18.1508 15.1692 18.1508 17.6002C18.1508 20.0312 20.1198 22.0002 22.5508 22.0002Z" fill="#CDCDCD"/>
<path d="M22.5508 24.2002C19.6138 24.2002 13.7508 25.6742 13.7508 28.6002V29.7002C13.7508 30.3052 14.2458 30.8002 14.8508 30.8002H30.2508C30.8558 30.8002 31.3508 30.3052 31.3508 29.7002V28.6002C31.3508 25.6742 25.4878 24.2002 22.5508 24.2002Z" fill="#CDCDCD"/>
</svg>
