<svg width="32" height="32" viewBox="0 0 32 32" fill="none" xmlns="http://www.w3.org/2000/svg">
<path fill-rule="evenodd" clip-rule="evenodd" d="M16 32C7.16344 32 0 24.8366 0 16C0 7.16344 7.16344 0 16 0C24.8366 0 32 7.16344 32 16C32 24.8366 24.8366 32 16 32ZM19.2 12.8C19.2 14.568 17.768 16 16 16C14.232 16 12.8 14.568 12.8 12.8C12.8 11.032 14.232 9.6 16 9.6C17.768 9.6 19.2 11.032 19.2 12.8ZM9.6 20.8C9.6 18.672 13.864 17.6 16 17.6C18.136 17.6 22.4 18.672 22.4 20.8V21.6C22.4 22.04 22.04 22.4 21.6 22.4H10.4C9.96 22.4 9.6 22.04 9.6 21.6V20.8Z" fill="#F2F2F2"/>
<path d="M16 16C17.768 16 19.2 14.568 19.2 12.8C19.2 11.032 17.768 9.6 16 9.6C14.232 9.6 12.8 11.032 12.8 12.8C12.8 14.568 14.232 16 16 16Z" fill="#CDCDCD"/>
<path d="M16 17.6C13.864 17.6 9.6 18.672 9.6 20.8V21.6C9.6 22.04 9.96 22.4 10.4 22.4H21.6C22.04 22.4 22.4 22.04 22.4 21.6V20.8C22.4 18.672 18.136 17.6 16 17.6Z" fill="#CDCDCD"/>
</svg>
