<svg width="156" height="156" viewBox="0 0 156 156" fill="none" xmlns="http://www.w3.org/2000/svg">
<g filter="url(#filter0_d_3396_16106)">
<rect x="25" y="126" width="106" height="106" rx="25" transform="rotate(-90 25 126)" fill="black"/>
</g>
<path fill-rule="evenodd" clip-rule="evenodd" d="M87.0771 74.9935C86.2661 75.3008 85.1468 75.9568 84.9639 76.6804C84.5213 78.4319 88.8517 78.914 91.1509 79L93.0535 80.8679C93.3961 81.2043 93.9465 81.1992 94.2828 80.8566L96.3423 78.7588C98.4256 78.5519 100.481 78.2223 101.283 77.7817C102.061 77.3549 102.615 76.8531 102.306 76.0513C102.028 75.3314 100.906 75.0723 100.068 74.9629C101.599 73.3392 101.556 70.7811 99.9559 69.2103C98.3359 67.6198 95.7332 67.6437 94.1427 69.2638C93.8246 69.5878 93.3041 69.5926 92.9801 69.2745C91.36 67.684 88.7573 67.708 87.1668 69.328C85.6247 70.8989 85.6003 73.3935 87.0771 74.9935ZM87.8293 75.7391C87.0592 75.8203 85.6726 76.4035 86.1998 77.0388C86.6499 77.5813 88.3511 77.7976 89.9954 77.8656L87.8293 75.7391ZM97.5716 77.5067C98.2531 77.4351 98.7985 77.3607 99.0678 77.29C99.1644 77.2647 99.2903 77.2361 99.4329 77.2038C100.145 77.0423 101.274 76.7862 101.27 76.3597C101.264 75.7186 100.019 75.7721 99.3306 75.8017C99.2998 75.8031 99.2702 75.8043 99.2418 75.8055L97.5716 77.5067Z" fill="white"/>
<path d="M96.8046 64.082C98.6852 63.2129 99.5275 60.9632 98.3871 59.2336C96.0741 55.7256 92.9022 52.8391 89.1476 50.8648C84.2803 48.3054 78.7052 47.4217 73.285 48.3504C67.8649 49.2791 62.9019 51.9684 59.1643 56.0021C55.4267 60.0359 53.1228 65.1891 52.6093 70.6642C52.0957 76.1393 53.4012 81.631 56.3235 86.2894C59.2458 90.9478 63.6221 94.5131 68.775 96.4335C73.9279 98.3539 79.5702 98.5224 84.8285 96.9127C88.8848 95.6711 92.5381 93.4247 95.463 90.4081C96.9052 88.9207 96.496 86.5536 94.8097 85.3499C93.1235 84.1462 90.8026 84.5761 89.2678 85.9678C87.3715 87.6873 85.1093 88.9806 82.6325 89.7388C78.9516 90.8655 75.0021 90.7476 71.395 89.4034C67.788 88.0591 64.7246 85.5634 62.679 82.3025C60.6333 79.0416 59.7195 75.1974 60.079 71.3648C60.4385 67.5322 62.0512 63.925 64.6675 61.1014C67.2839 58.2778 70.7579 56.3953 74.552 55.7452C78.3462 55.0951 82.2488 55.7137 85.6558 57.5053C87.9485 58.7108 89.9307 60.4022 91.4742 62.4444C92.7234 64.0972 94.9239 64.9511 96.8046 64.082Z" fill="white"/>
<defs>
<filter id="filter0_d_3396_16106" x="0" y="0" width="156" height="156" filterUnits="userSpaceOnUse" color-interpolation-filters="sRGB">
<feFlood flood-opacity="0" result="BackgroundImageFix"/>
<feColorMatrix in="SourceAlpha" type="matrix" values="0 0 0 0 0 0 0 0 0 0 0 0 0 0 0 0 0 0 127 0" result="hardAlpha"/>
<feOffset dy="5"/>
<feGaussianBlur stdDeviation="12.5"/>
<feComposite in2="hardAlpha" operator="out"/>
<feColorMatrix type="matrix" values="0 0 0 0 0 0 0 0 0 0 0 0 0 0 0 0 0 0 0.1 0"/>
<feBlend mode="normal" in2="BackgroundImageFix" result="effect1_dropShadow_3396_16106"/>
<feBlend mode="normal" in="SourceGraphic" in2="effect1_dropShadow_3396_16106" result="shape"/>
</filter>
</defs>
</svg>
