<svg width="24" height="24" viewBox="0 0 24 24" fill="none" xmlns="http://www.w3.org/2000/svg">
<path d="M7.20002 6.12023V7.12023C7.55569 7.12023 7.88459 6.93132 8.0638 6.62411L7.20002 6.12023ZM8.88002 3.24023V2.24023C8.52436 2.24023 8.19546 2.42915 8.01624 2.73636L8.88002 3.24023ZM15.12 3.24023L15.9838 2.73636C15.8046 2.42915 15.4757 2.24023 15.12 2.24023V3.24023ZM16.8 6.12023L15.9362 6.62411C16.1155 6.93132 16.4444 7.12023 16.8 7.12023V6.12023ZM2.40002 18.3602H3.40002V8.52023H2.40002H1.40002V18.3602H2.40002ZM4.80002 6.12023V7.12023H7.20002V6.12023V5.12023H4.80002V6.12023ZM7.20002 6.12023L8.0638 6.62411L9.7438 3.74411L8.88002 3.24023L8.01624 2.73636L6.33624 5.61636L7.20002 6.12023ZM8.88002 3.24023V4.24023H15.12V3.24023V2.24023H8.88002V3.24023ZM15.12 3.24023L14.2562 3.74411L15.9362 6.62411L16.8 6.12023L17.6638 5.61636L15.9838 2.73636L15.12 3.24023ZM16.8 6.12023V7.12023H19.2V6.12023V5.12023H16.8V6.12023ZM21.6 8.52023H20.6V18.3602H21.6H22.6V8.52023H21.6ZM21.6 18.3602H20.6C20.6 19.1334 19.9732 19.7602 19.2 19.7602V20.7602V21.7602C21.0778 21.7602 22.6 20.238 22.6 18.3602H21.6ZM19.2 6.12023V7.12023C19.9732 7.12023 20.6 7.74704 20.6 8.52023H21.6H22.6C22.6 6.64247 21.0778 5.12023 19.2 5.12023V6.12023ZM2.40002 8.52023H3.40002C3.40002 7.74703 4.02682 7.12023 4.80002 7.12023V6.12023V5.12023C2.92226 5.12023 1.40002 6.64246 1.40002 8.52023H2.40002ZM4.80002 20.7602V19.7602C4.02683 19.7602 3.40002 19.1334 3.40002 18.3602H2.40002H1.40002C1.40002 20.238 2.92226 21.7602 4.80002 21.7602V20.7602ZM15.6 12.8402H14.6C14.6 14.2762 13.436 15.4402 12 15.4402V16.4402V17.4402C14.5405 17.4402 16.6 15.3807 16.6 12.8402H15.6ZM12 16.4402V15.4402C10.5641 15.4402 9.40002 14.2762 9.40002 12.8402H8.40002H7.40002C7.40002 15.3807 9.45951 17.4402 12 17.4402V16.4402ZM8.40002 12.8402H9.40002C9.40002 11.4043 10.5641 10.2402 12 10.2402V9.24023V8.24023C9.45951 8.24023 7.40002 10.2997 7.40002 12.8402H8.40002ZM12 9.24023V10.2402C13.436 10.2402 14.6 11.4043 14.6 12.8402H15.6H16.6C16.6 10.2997 14.5405 8.24023 12 8.24023V9.24023ZM19.2 20.7602V19.7602H4.80002V20.7602V21.7602H19.2V20.7602Z" fill="#FF5856"/>
</svg>
