<svg width="156" height="156" viewBox="0 0 156 156" fill="none" xmlns="http://www.w3.org/2000/svg">
<g filter="url(#filter0_d_3489_4739)">
<rect x="25" y="126" width="106" height="106" rx="25" transform="rotate(-90 25 126)" fill="black"/>
</g>
<path fill-rule="evenodd" clip-rule="evenodd" d="M87.0771 74.9937C86.2661 75.3011 85.1468 75.957 84.9639 76.6806C84.5213 78.4321 88.8517 78.9143 91.1509 79.0003L93.0535 80.8682C93.3961 81.2045 93.9465 81.1994 94.2828 80.8569L96.3423 78.7591C98.4256 78.5521 100.481 78.2226 101.283 77.7819C102.061 77.3551 102.615 76.8533 102.306 76.0516C102.028 75.3316 100.906 75.0726 100.068 74.9631C101.599 73.3394 101.556 70.7813 99.9559 69.2105C98.3359 67.62 95.7332 67.644 94.1427 69.264C93.8246 69.588 93.3041 69.5928 92.9801 69.2747C91.36 67.6843 88.7573 67.7082 87.1668 69.3283C85.6247 70.8991 85.6003 73.3937 87.0771 74.9937ZM87.8293 75.7393C87.0592 75.8206 85.6726 76.4037 86.1998 77.0391C86.6499 77.5815 88.3511 77.7978 89.9954 77.8659L87.8293 75.7393ZM97.5716 77.507C98.2531 77.4354 98.7985 77.3609 99.0678 77.2903C99.1644 77.2649 99.2903 77.2364 99.4329 77.204C100.145 77.0426 101.274 76.7864 101.27 76.3599C101.264 75.7189 100.019 75.7724 99.3306 75.802C99.2998 75.8033 99.2702 75.8046 99.2418 75.8057L97.5716 77.507Z" fill="white"/>
<path d="M96.8046 64.0825C98.6852 63.2134 99.5275 60.9637 98.3871 59.2341C96.0741 55.7261 92.9022 52.8396 89.1476 50.8653C84.2803 48.3059 78.7052 47.4222 73.285 48.3509C67.8649 49.2796 62.9019 51.9689 59.1643 56.0026C55.4267 60.0363 53.1228 65.1895 52.6093 70.6647C52.0957 76.1398 53.4012 81.6315 56.3235 86.2899C59.2458 90.9483 63.6221 94.5136 68.775 96.434C73.9279 98.3544 79.5702 98.5228 84.8285 96.9132C88.8848 95.6715 92.5381 93.4252 95.463 90.4086C96.9052 88.9212 96.496 86.5541 94.8097 85.3504C93.1235 84.1467 90.8026 84.5766 89.2678 85.9683C87.3715 87.6878 85.1093 88.9811 82.6325 89.7393C78.9516 90.866 75.0021 90.7481 71.395 89.4038C67.788 88.0596 64.7246 85.5639 62.679 82.303C60.6333 79.0421 59.7195 75.1979 60.079 71.3653C60.4385 67.5327 62.0512 63.9255 64.6675 61.1019C67.2839 58.2783 70.7579 56.3957 74.552 55.7457C78.3462 55.0956 82.2488 55.7142 85.6558 57.5057C87.9485 58.7113 89.9307 60.4027 91.4742 62.4449C92.7234 64.0977 94.9239 64.9516 96.8046 64.0825Z" fill="white"/>
<defs>
<filter id="filter0_d_3489_4739" x="0" y="0" width="156" height="156" filterUnits="userSpaceOnUse" color-interpolation-filters="sRGB">
<feFlood flood-opacity="0" result="BackgroundImageFix"/>
<feColorMatrix in="SourceAlpha" type="matrix" values="0 0 0 0 0 0 0 0 0 0 0 0 0 0 0 0 0 0 127 0" result="hardAlpha"/>
<feOffset dy="5"/>
<feGaussianBlur stdDeviation="12.5"/>
<feComposite in2="hardAlpha" operator="out"/>
<feColorMatrix type="matrix" values="0 0 0 0 0 0 0 0 0 0 0 0 0 0 0 0 0 0 0.1 0"/>
<feBlend mode="normal" in2="BackgroundImageFix" result="effect1_dropShadow_3489_4739"/>
<feBlend mode="normal" in="SourceGraphic" in2="effect1_dropShadow_3489_4739" result="shape"/>
</filter>
</defs>
</svg>
