<svg width="91" height="91" viewBox="0 0 91 91" fill="none" xmlns="http://www.w3.org/2000/svg">
<g filter="url(#filter0_d_3537_58986)">
<circle cx="45.1865" cy="42.187" r="14.8703" transform="rotate(9.13549 45.1865 42.187)" fill="#70CCFF"/>
<circle cx="45.1865" cy="42.187" r="15.8115" transform="rotate(9.13549 45.1865 42.187)" stroke="white" stroke-width="1.88235"/>
</g>
<path d="M37.0182 35.9966C35.0324 39.1282 37.852 41.2208 38.1655 41.3988C38.6524 41.6753 39.4492 41.2634 41.6726 40.7656C42.5059 39.2632 46.3532 35.6979 40.2633 34.7369C38.9205 34.525 37.4695 35.2848 37.0182 35.9966Z" fill="#F9F4CA"/>
<path d="M38.0283 36.7732C36.8487 38.6334 38.5236 39.8765 38.7098 39.9822C38.9991 40.1465 39.4724 39.9018 40.7931 39.6061C41.2881 38.7136 43.5735 36.5957 39.956 36.0249C39.1583 35.8991 38.2964 36.3504 38.0283 36.7732Z" fill="#5199FE"/>
<path d="M52.9842 35.9966C54.97 39.1282 52.1504 41.2208 51.837 41.3988C51.35 41.6753 50.5533 41.2634 48.3298 40.7656C47.4966 39.2632 43.6493 35.6979 49.7391 34.7369C51.0819 34.525 52.5329 35.2848 52.9842 35.9966Z" fill="#F9F4CA"/>
<path d="M51.9741 36.7732C53.1537 38.6334 51.4788 39.8765 51.2926 39.9822C51.0034 40.1465 50.5301 39.9018 49.2093 39.6061C48.7143 38.7136 46.429 36.5957 50.0464 36.0249C50.8441 35.8991 51.706 36.3504 51.9741 36.7732Z" fill="#5199FE"/>
<path d="M43.019 52.1373C41.6908 51.7946 41.8774 49.4952 42.0381 48.3884C42.7879 48.5491 43.4253 48.8704 44.7642 48.8704C45.8815 48.8704 47.5186 48.5491 48.0363 48.3884C48.1434 48.9775 48.1604 49.1918 48.1604 50.5307C48.1604 51.9323 46.875 52.298 46.1788 52.2444C45.4826 52.1909 45.2684 51.5482 45.2148 51.2804C45.1612 51.0127 45.1612 50.7984 45.0541 50.7984C44.947 50.7984 44.8935 50.852 44.8935 51.1733C44.8935 51.4947 44.6792 52.5658 43.019 52.1373Z" fill="#F9F4CA"/>
<path d="M37.9725 43.8484C37.7582 39.4354 41.1858 35.6008 43.8636 35.3866C45.7526 35.2355 47.71 35.2822 48.7276 36.1926C49.7451 37.1031 52.1839 39.8192 52.0232 44.5321C51.8947 48.3024 47.3103 49.727 44.9347 49.4718C42.7032 49.4361 38.1867 48.2614 37.9725 43.8484Z" fill="#F4C10E"/>
<path d="M40.9963 36.3419C41.1034 35.2708 42.4959 34.8959 42.603 34.7352C42.3352 34.521 41.896 34.0068 42.2816 33.664C42.6672 33.3213 44.049 33.7354 44.6917 33.9854C44.6559 33.8604 44.5631 33.5677 44.4774 33.3963C44.3703 33.1821 44.3168 32.7001 44.7452 32.7536C45.1737 32.8072 47.9585 33.9319 47.423 36.3419C46.8874 38.7519 43.8883 38.7519 43.1385 38.5912C42.5387 38.4627 42.7815 37.895 42.9779 37.6272C42.4959 37.7343 40.8892 37.413 40.9963 36.3419Z" fill="#F4C00D"/>
<path d="M45.1148 43.1931C42.5268 44.4108 39.2896 43.7944 37.9919 43.1931C37.5533 45.6172 39.7471 49.5662 45.285 49.5662C49.8936 49.5662 52.4621 46.7729 52.0235 43.7287C50.5759 44.8562 47.0887 43.9824 45.1148 43.1931Z" fill="#F9F4CA"/>
<path d="M43.669 45.0668C43.8126 45.325 44.3683 45.4617 45.0614 44.9399C45.597 45.3353 45.9719 45.496 46.5074 45.0668" stroke="#111111" stroke-width="0.428445" stroke-linecap="round"/>
<ellipse cx="42.3307" cy="40.9973" rx="0.803335" ry="0.856891" fill="#111111"/>
<ellipse cx="47.6847" cy="40.9973" rx="0.803335" ry="0.856891" fill="#111111"/>
<defs>
<filter id="filter0_d_3537_58986" x="0.195858" y="0.961296" width="89.9813" height="89.9808" filterUnits="userSpaceOnUse" color-interpolation-filters="sRGB">
<feFlood flood-opacity="0" result="BackgroundImageFix"/>
<feColorMatrix in="SourceAlpha" type="matrix" values="0 0 0 0 0 0 0 0 0 0 0 0 0 0 0 0 0 0 127 0" result="hardAlpha"/>
<feOffset dy="3.76471"/>
<feGaussianBlur stdDeviation="14.1176"/>
<feComposite in2="hardAlpha" operator="out"/>
<feColorMatrix type="matrix" values="0 0 0 0 0 0 0 0 0 0 0 0 0 0 0 0 0 0 0.08 0"/>
<feBlend mode="normal" in2="BackgroundImageFix" result="effect1_dropShadow_3537_58986"/>
<feBlend mode="normal" in="SourceGraphic" in2="effect1_dropShadow_3537_58986" result="shape"/>
</filter>
</defs>
</svg>
